<svg width="364" height="416" viewBox="0 0 364 416" fill="none" xmlns="http://www.w3.org/2000/svg">
<rect x="0.866044" width="224.348" height="54.5206" rx="4.5" transform="matrix(0.866044 -0.499967 0.866044 0.499967 29.116 158.1)" fill="#0C0C0C" stroke="url(#paint0_linear_161_619)"/>
<path d="M58.2182 152.451L58.9717 152.016L65.034 155.516L64.4278 155.866L59.2835 152.896L60.7124 156.171L60.6258 156.221L54.9532 155.396L60.0975 158.366L59.4913 158.716L53.429 155.216L54.1825 154.781L59.5779 155.566L58.2182 152.451ZM66.5739 150.607L65.7251 150.117L66.2967 149.787L70.6269 152.287L70.0554 152.617L69.2066 152.127C69.4434 152.724 69.1778 153.244 68.4099 153.687C67.7921 154.044 67.0444 154.222 66.1668 154.222C65.295 154.219 64.5415 154.034 63.9064 153.667C63.2713 153.3 62.9509 152.865 62.9451 152.362C62.9451 151.855 63.254 151.424 63.8718 151.067C64.6397 150.624 65.5404 150.471 66.5739 150.607ZM66.1928 153.757C66.851 153.757 67.4197 153.619 67.8989 153.342C68.3781 153.065 68.6177 152.737 68.6177 152.357C68.6062 151.97 68.3637 151.641 67.8902 151.367C67.411 151.091 66.8423 150.952 66.1841 150.952C65.5202 150.949 64.9486 151.086 64.4694 151.362C63.9902 151.639 63.7534 151.969 63.7592 152.352C63.7592 152.732 63.9988 153.06 64.478 153.337C64.9515 153.61 65.5231 153.75 66.1928 153.757ZM72.4607 148.409L70.5727 147.319L71.1443 146.989L75.4746 149.489L74.903 149.819L73.015 148.729L70.5208 150.169L72.4088 151.258L71.8372 151.588L67.507 149.089L68.0785 148.759L69.9665 149.849L72.4607 148.409ZM76.2589 147.886L75.5055 144.471L75.9905 144.191L80.3207 146.691L79.7491 147.021L76.4148 145.096L77.1683 148.511L76.6833 148.791L72.3531 146.291L72.9247 145.961L76.2589 147.886ZM80.4555 144.013L85.0282 143.973L84.2661 144.413L80.0138 144.458L82.101 145.663L81.5294 145.993L77.1992 143.493L77.7708 143.163L79.6848 144.268L79.832 141.973L80.6114 141.523L80.4555 144.013ZM85.0728 138.828C85.7079 138.461 86.4642 138.278 87.3418 138.278C88.2194 138.271 88.9786 138.453 89.6195 138.823C90.2546 139.19 90.5721 139.63 90.5721 140.143C90.5606 140.649 90.2402 141.084 89.6108 141.448C89.0335 141.781 88.3435 141.963 87.541 141.993C86.7327 142.013 86.0168 141.876 85.3932 141.583L84.4925 142.103L86.3805 143.193L85.8089 143.523L81.4787 141.023L82.0503 140.693L83.9382 141.783L84.8389 141.263C84.3309 140.896 84.097 140.484 84.1374 140.028C84.1779 139.565 84.4896 139.165 85.0728 138.828ZM87.3505 141.543C88.0087 141.543 88.5774 141.404 89.0566 141.128C89.5358 140.851 89.7754 140.523 89.7754 140.143C89.7638 139.756 89.5213 139.426 89.0479 139.153C88.5687 138.876 88 138.738 87.3418 138.738C86.6778 138.735 86.1062 138.871 85.627 139.148C85.1478 139.425 84.9111 139.754 84.9169 140.138C84.9169 140.518 85.1565 140.846 85.6357 141.123C86.1091 141.396 86.6807 141.536 87.3505 141.543ZM90.6224 135.624C91.2402 135.267 91.985 135.091 92.8568 135.094C93.7344 135.094 94.4908 135.277 95.1258 135.644C95.7609 136.011 96.0785 136.447 96.0785 136.954C96.0843 137.457 95.7783 137.887 95.1605 138.244C94.3926 138.687 93.4919 138.841 92.4584 138.704L95.0392 140.194L94.4677 140.524L88.4053 137.024L88.9769 136.694L89.8257 137.184C89.5889 136.587 89.8545 136.067 90.6224 135.624ZM92.8568 138.364C93.515 138.364 94.0837 138.226 94.5629 137.949C95.0421 137.672 95.2817 137.344 95.2817 136.964C95.2702 136.577 95.0277 136.247 94.5543 135.974C94.075 135.697 93.5063 135.559 92.8482 135.559C92.1842 135.556 91.6126 135.692 91.1334 135.969C90.6542 136.246 90.4175 136.576 90.4232 136.959C90.4232 137.339 90.6628 137.667 91.142 137.944C91.6155 138.217 92.1871 138.357 92.8568 138.364Z" fill="white"/>
<path d="M64.9504 162.027L68.4146 160.028L73.2645 162.827L72.7795 163.107L68.3869 160.572L65.8927 162.011L70.2853 164.547L69.8003 164.827L64.9504 162.027ZM75.1154 161.111L73.3348 158.787L73.8198 158.507L76.12 161.547C76.3325 161.829 76.4087 162.097 76.3487 162.351C76.2979 162.604 76.1108 162.811 75.7875 162.971L75.3579 162.723C75.8244 162.512 75.9006 162.191 75.5866 161.759L75.4618 161.583L70.4249 160.467L70.9099 160.187L75.1154 161.111ZM79.3988 159.382C78.8768 159.683 78.2694 159.834 77.5766 159.834C76.8745 159.829 76.2695 159.679 75.7614 159.386C75.2487 159.09 74.9923 158.742 74.9923 158.342C74.9877 157.939 75.2464 157.587 75.7683 157.286C76.1101 157.089 76.5004 156.96 76.9392 156.898C77.3734 156.834 77.7914 156.846 78.1932 156.934L78.0339 157.274C77.7337 157.208 77.4196 157.2 77.0916 157.25C76.7637 157.296 76.4704 157.393 76.2117 157.542C75.8284 157.763 75.639 158.027 75.6436 158.334C75.6436 158.638 75.8353 158.901 76.2187 159.122C76.5974 159.341 77.0547 159.453 77.5905 159.458C78.117 159.458 78.572 159.347 78.9554 159.126C79.2094 158.979 79.378 158.813 79.4611 158.626C79.5489 158.437 79.5443 158.247 79.4473 158.058L80.05 157.966C80.184 158.209 80.1932 158.457 80.0778 158.71C79.9623 158.963 79.736 159.187 79.3988 159.382ZM77.5766 156.338L80.4865 154.658L80.9299 154.914L79.7036 155.622L82.7243 157.366L82.2671 157.63L79.2463 155.886L78.02 156.594L77.5766 156.338ZM82.8174 154.833L83.7666 154.285C84.0853 154.101 84.4594 154.002 84.889 153.989C85.3139 153.973 85.6834 154.055 85.9975 154.237C86.3162 154.421 86.4617 154.635 86.434 154.881C86.4155 155.121 86.2423 155.335 85.9143 155.525L84.5079 156.337L81.0437 154.337L81.501 154.073L82.8174 154.833ZM84.5217 155.817L85.4709 155.269C85.6695 155.154 85.7781 155.025 85.7966 154.881C85.8104 154.734 85.725 154.607 85.5402 154.501C85.3555 154.394 85.1384 154.346 84.889 154.357C84.6349 154.365 84.4086 154.426 84.21 154.541L83.2608 155.089L84.5217 155.817ZM89.917 151.158C90.4344 151.019 90.8939 151.066 91.2958 151.298C91.5822 151.463 91.7184 151.654 91.7046 151.87C91.6953 152.083 91.5198 152.289 91.178 152.486L89.4944 153.458L86.0302 151.458L87.5753 150.566C87.9078 150.374 88.2519 150.274 88.6076 150.266C88.9679 150.255 89.2866 150.33 89.5637 150.49C89.9101 150.69 90.0279 150.913 89.917 151.158ZM88.0187 150.822L86.9309 151.45L87.984 152.058L89.0718 151.43C89.4736 151.198 89.4944 150.978 89.1341 150.77C88.9725 150.677 88.7946 150.635 88.6007 150.646C88.4067 150.651 88.2127 150.71 88.0187 150.822ZM89.5083 152.938L90.7346 152.23C90.9378 152.113 91.0441 151.995 91.0533 151.878C91.0671 151.758 90.9863 151.647 90.8108 151.546C90.6445 151.45 90.4598 151.407 90.2565 151.418C90.0579 151.426 89.857 151.489 89.6538 151.606L88.4274 152.314L89.5083 152.938ZM93.1526 148.13L92.4736 147.738L92.9309 147.474L96.3951 149.474L95.9378 149.738L95.2588 149.346C95.4482 149.823 95.2357 150.239 94.6214 150.594C94.1272 150.879 93.529 151.022 92.827 151.022C92.1295 151.019 91.5267 150.871 91.0186 150.578C90.5106 150.285 90.2542 149.937 90.2496 149.534C90.2496 149.129 90.4967 148.783 90.9909 148.498C91.6053 148.144 92.3258 148.021 93.1526 148.13ZM92.8477 150.65C93.3743 150.65 93.8293 150.539 94.2126 150.318C94.596 150.097 94.7877 149.834 94.7877 149.53C94.7784 149.221 94.5844 148.957 94.2057 148.738C93.8223 148.517 93.3674 148.406 92.8408 148.406C92.3096 148.404 91.8524 148.513 91.469 148.734C91.0856 148.955 90.8962 149.219 90.9009 149.526C90.9009 149.83 91.0926 150.093 91.4759 150.314C91.8547 150.533 92.3119 150.645 92.8477 150.65ZM101.105 146.243L98.0838 144.499L98.5411 144.235L102.005 146.235L97.3632 148.915L93.8991 146.915L94.3563 146.651L97.3771 148.395L99.0122 147.451L95.9914 145.707L96.4487 145.443L99.4695 147.187L101.105 146.243ZM102.633 144.953L102.03 142.221L102.418 141.997L105.882 143.997L105.425 144.261L102.757 142.721L103.36 145.453L102.972 145.677L99.508 143.677L99.9653 143.413L102.633 144.953ZM109.08 139.895L107.57 139.023L108.027 138.759L111.491 140.759L111.034 141.023L109.523 140.151L107.528 141.303L109.038 142.175L108.581 142.439L105.117 140.439L105.574 140.175L107.085 141.047L109.08 139.895ZM114.925 138.273C114.915 138.678 114.659 139.026 114.156 139.317C113.643 139.613 113.038 139.762 112.34 139.765C111.638 139.765 111.031 139.617 110.518 139.321C110.005 139.025 109.751 138.676 109.756 138.273C109.756 137.868 110.012 137.517 110.525 137.221C111.033 136.928 111.638 136.781 112.34 136.781C113.042 136.776 113.65 136.921 114.162 137.217C114.671 137.51 114.925 137.862 114.925 138.273ZM112.347 139.393C112.874 139.393 113.329 139.282 113.712 139.061C114.096 138.84 114.287 138.577 114.287 138.273C114.278 137.964 114.084 137.7 113.705 137.481C113.322 137.26 112.867 137.149 112.34 137.149C111.809 137.146 111.352 137.256 110.969 137.477C110.585 137.698 110.396 137.962 110.4 138.269C110.4 138.573 110.592 138.836 110.975 139.057C111.354 139.276 111.811 139.388 112.347 139.393ZM113.196 135.775L115.413 134.495L115.856 134.751L114.096 135.767L117.117 137.511L116.66 137.775L113.196 135.775ZM115.622 134.375L118.532 132.695L118.975 132.951L117.749 133.659L120.769 135.403L120.312 135.667L117.291 133.923L116.065 134.631L115.622 134.375ZM122.213 133.649L121.611 130.917L121.999 130.693L125.463 132.693L125.006 132.957L122.338 131.417L122.941 134.149L122.553 134.373L119.089 132.373L119.546 132.109L122.213 133.649ZM126.471 128.015C126.966 127.73 127.561 127.589 128.259 127.591C128.961 127.591 129.566 127.738 130.074 128.031C130.582 128.325 130.836 128.674 130.836 129.079C130.841 129.482 130.596 129.826 130.102 130.111C129.488 130.466 128.767 130.588 127.94 130.479L130.005 131.671L129.548 131.935L124.698 129.135L125.155 128.871L125.834 129.263C125.645 128.786 125.857 128.37 126.471 128.015ZM128.259 130.207C128.785 130.207 129.24 130.096 129.624 129.875C130.007 129.654 130.199 129.391 130.199 129.087C130.19 128.778 129.996 128.514 129.617 128.295C129.234 128.074 128.779 127.963 128.252 127.963C127.721 127.961 127.264 128.07 126.88 128.291C126.497 128.513 126.307 128.777 126.312 129.083C126.312 129.387 126.504 129.65 126.887 129.871C127.266 130.09 127.723 130.202 128.259 130.207ZM132.761 125.264L132.082 124.873L132.539 124.609L136.003 126.608L135.546 126.872L134.867 126.48C135.056 126.958 134.844 127.374 134.229 127.728C133.735 128.014 133.137 128.156 132.435 128.156C131.737 128.154 131.135 128.006 130.627 127.712C130.119 127.419 129.862 127.071 129.858 126.668C129.858 126.263 130.105 125.918 130.599 125.632C131.213 125.278 131.934 125.155 132.761 125.264ZM132.456 127.784C132.982 127.784 133.437 127.674 133.821 127.452C134.204 127.231 134.396 126.968 134.396 126.664C134.386 126.355 134.192 126.091 133.814 125.872C133.43 125.651 132.975 125.54 132.449 125.54C131.918 125.538 131.46 125.647 131.077 125.868C130.694 126.09 130.504 126.354 130.509 126.66C130.509 126.964 130.701 127.227 131.084 127.448C131.463 127.667 131.92 127.779 132.456 127.784ZM138.669 125.166C138.147 125.467 137.539 125.617 136.847 125.617C136.144 125.612 135.539 125.463 135.031 125.17C134.519 124.874 134.262 124.526 134.262 124.126C134.258 123.723 134.516 123.371 135.038 123.07C135.38 122.872 135.77 122.743 136.209 122.682C136.643 122.618 137.061 122.63 137.463 122.718L137.304 123.058C137.004 122.991 136.689 122.983 136.362 123.034C136.034 123.079 135.74 123.176 135.482 123.326C135.098 123.547 134.909 123.811 134.914 124.118C134.914 124.422 135.105 124.684 135.489 124.906C135.867 125.124 136.325 125.236 136.86 125.242C137.387 125.242 137.842 125.131 138.225 124.91C138.479 124.763 138.648 124.596 138.731 124.41C138.819 124.22 138.814 124.031 138.717 123.842L139.32 123.75C139.454 123.992 139.463 124.24 139.348 124.494C139.232 124.747 139.006 124.971 138.669 125.166ZM142.458 122.978C141.936 123.279 141.328 123.43 140.635 123.43C139.933 123.425 139.328 123.275 138.82 122.982C138.308 122.686 138.051 122.338 138.051 121.938C138.047 121.536 138.305 121.184 138.827 120.882C139.169 120.685 139.559 120.556 139.998 120.494C140.432 120.43 140.85 120.442 141.252 120.53L141.093 120.87C140.793 120.804 140.478 120.796 140.15 120.846C139.823 120.892 139.529 120.989 139.271 121.138C138.887 121.36 138.698 121.624 138.702 121.93C138.702 122.234 138.894 122.497 139.278 122.718C139.656 122.937 140.114 123.049 140.649 123.054C141.176 123.054 141.631 122.944 142.014 122.722C142.268 122.576 142.437 122.409 142.52 122.222C142.608 122.033 142.603 121.844 142.506 121.654L143.109 121.562C143.243 121.805 143.252 122.053 143.137 122.306C143.021 122.56 142.795 122.784 142.458 122.978ZM143.724 120.071L147.382 120.039L146.772 120.391L143.37 120.427L145.04 121.391L144.583 121.655L141.119 119.655L141.576 119.391L143.107 120.275L143.225 118.439L143.849 118.079L143.724 120.071ZM147.855 116.55L147.176 116.158L147.634 115.894L151.098 117.894L150.641 118.158L149.962 117.766C150.151 118.243 149.939 118.659 149.324 119.014C148.83 119.299 148.232 119.442 147.53 119.442C146.832 119.439 146.23 119.291 145.722 118.998C145.213 118.705 144.957 118.357 144.952 117.954C144.952 117.549 145.2 117.204 145.694 116.918C146.308 116.564 147.029 116.441 147.855 116.55ZM147.551 119.07C148.077 119.07 148.532 118.959 148.915 118.738C149.299 118.517 149.491 118.254 149.491 117.95C149.481 117.641 149.287 117.377 148.909 117.158C148.525 116.937 148.07 116.826 147.544 116.826C147.013 116.824 146.555 116.933 146.172 117.154C145.788 117.375 145.599 117.639 145.604 117.946C145.604 118.25 145.795 118.513 146.179 118.734C146.558 118.953 147.015 119.065 147.551 119.07ZM152.759 114.855L156.112 114.999L155.558 115.319L152.475 115.171L154.145 116.135L153.687 116.399L152.018 115.435L152.274 117.215L151.72 117.535L151.47 115.599L148.325 115.495L148.879 115.175L151.761 115.287L150.223 114.399L150.68 114.135L152.219 115.023L152.025 113.359L152.579 113.039L152.759 114.855ZM157.478 113.563L155.697 111.239L156.182 110.959L158.482 113.999C158.695 114.282 158.771 114.55 158.711 114.803C158.66 115.056 158.473 115.263 158.15 115.423L157.72 115.175C158.187 114.964 158.263 114.643 157.949 114.211L157.824 114.035L152.787 112.919L153.272 112.639L157.478 113.563ZM156.319 110.88L159.229 109.2L159.672 109.456L158.446 110.164L161.467 111.908L161.009 112.172L157.989 110.428L156.762 111.136L156.319 110.88ZM165.405 107.579C165.922 107.44 166.382 107.487 166.784 107.719C167.07 107.884 167.206 108.075 167.192 108.291C167.183 108.504 167.008 108.709 166.666 108.907L164.982 109.879L161.518 107.879L163.063 106.987C163.396 106.795 163.74 106.695 164.096 106.687C164.456 106.676 164.774 106.751 165.052 106.911C165.398 107.111 165.516 107.333 165.405 107.579ZM163.507 107.243L162.419 107.871L163.472 108.479L164.56 107.851C164.962 107.619 164.982 107.399 164.622 107.191C164.46 107.097 164.283 107.056 164.089 107.067C163.895 107.072 163.701 107.131 163.507 107.243ZM164.996 109.359L166.223 108.651C166.426 108.533 166.532 108.416 166.541 108.299C166.555 108.179 166.474 108.068 166.299 107.967C166.132 107.871 165.948 107.828 165.744 107.839C165.546 107.847 165.345 107.909 165.142 108.027L163.915 108.735L164.996 109.359ZM168.641 104.551L167.962 104.159L168.419 103.895L171.883 105.895L171.426 106.159L170.747 105.767C170.936 106.244 170.724 106.66 170.109 107.015C169.615 107.3 169.017 107.443 168.315 107.443C167.617 107.44 167.015 107.292 166.507 106.999C165.999 106.706 165.742 106.358 165.738 105.955C165.738 105.55 165.985 105.204 166.479 104.919C167.093 104.564 167.814 104.442 168.641 104.551ZM168.336 107.071C168.862 107.071 169.317 106.96 169.701 106.739C170.084 106.518 170.276 106.255 170.276 105.951C170.266 105.642 170.072 105.378 169.694 105.159C169.31 104.938 168.855 104.827 168.329 104.827C167.798 104.824 167.34 104.934 166.957 105.155C166.574 105.376 166.384 105.64 166.389 105.947C166.389 106.251 166.58 106.514 166.964 106.735C167.343 106.954 167.8 107.065 168.336 107.071ZM176.592 102.664L173.572 100.92L174.029 100.656L177.493 102.656L172.851 105.336L169.387 103.336L169.844 103.072L172.865 104.816L174.5 103.872L171.479 102.128L171.937 101.864L174.957 103.608L176.592 102.664ZM179.271 100.982L177.49 98.6581L177.975 98.3781L180.275 101.418C180.488 101.701 180.564 101.969 180.504 102.222C180.453 102.475 180.266 102.682 179.943 102.842L179.513 102.594C179.98 102.383 180.056 102.062 179.742 101.63L179.617 101.454L174.58 100.338L175.065 100.058L179.271 100.982ZM77.1859 168.643L76.5832 165.911L76.9711 165.687L80.4353 167.687L79.978 167.951L77.3106 166.411L77.9134 169.143L77.5254 169.367L74.0612 167.367L74.5185 167.103L77.1859 168.643ZM83.0998 166.245C82.5778 166.546 81.9704 166.697 81.2776 166.697C80.5755 166.692 79.9705 166.542 79.4624 166.249C78.9497 165.953 78.6933 165.605 78.6933 165.205C78.6887 164.802 78.9474 164.45 79.4693 164.149C79.8111 163.952 80.2014 163.822 80.6402 163.761C81.0744 163.697 81.4924 163.709 81.8942 163.797L81.7349 164.137C81.4346 164.07 81.1206 164.062 80.7926 164.113C80.4647 164.158 80.1714 164.256 79.9127 164.405C79.5293 164.626 79.34 164.89 79.3446 165.197C79.3446 165.501 79.5363 165.764 79.9196 165.985C80.2984 166.204 80.7557 166.316 81.2915 166.321C81.818 166.321 82.273 166.21 82.6563 165.989C82.9104 165.842 83.079 165.676 83.1621 165.489C83.2499 165.3 83.2453 165.11 83.1483 164.921L83.751 164.829C83.885 165.072 83.8942 165.32 83.7787 165.573C83.6633 165.826 83.4369 166.05 83.0998 166.245ZM81.2775 163.201L84.1875 161.521L84.6309 161.777L83.4046 162.485L86.4253 164.229L85.968 164.493L82.9473 162.749L81.721 163.457L81.2775 163.201ZM90.5401 161.35C90.5308 161.755 90.2745 162.103 89.771 162.394C89.2583 162.69 88.6532 162.839 87.9558 162.842C87.2537 162.842 86.6463 162.694 86.1336 162.398C85.6209 162.102 85.3669 161.752 85.3715 161.35C85.3715 160.944 85.6278 160.594 86.1405 160.298C86.6486 160.004 87.2537 159.858 87.9558 159.858C88.6578 159.852 89.2652 159.998 89.7779 160.294C90.286 160.587 90.5401 160.939 90.5401 161.35ZM87.9627 162.47C88.4893 162.47 88.9442 162.359 89.3276 162.138C89.711 161.916 89.9026 161.654 89.9026 161.35C89.8934 161.04 89.6994 160.776 89.3207 160.558C88.9373 160.336 88.4823 160.226 87.9558 160.226C87.4246 160.223 86.9673 160.332 86.584 160.554C86.2006 160.775 86.0112 161.039 86.0158 161.346C86.0158 161.65 86.2075 161.912 86.5909 162.134C86.9696 162.352 87.4269 162.464 87.9627 162.47ZM90.5847 157.732C91.0789 157.447 91.6748 157.305 92.3722 157.308C93.0743 157.308 93.6794 157.455 94.1875 157.748C94.6955 158.041 94.9496 158.391 94.9496 158.796C94.9542 159.199 94.7094 159.543 94.2152 159.828C93.6009 160.183 92.8803 160.305 92.0535 160.196L94.1182 161.388L93.6609 161.652L88.811 158.852L89.2683 158.588L89.9473 158.98C89.7579 158.503 89.9704 158.087 90.5847 157.732ZM92.3722 159.924C92.8988 159.924 93.3537 159.813 93.7371 159.592C94.1205 159.371 94.3122 159.108 94.3122 158.804C94.3029 158.495 94.1089 158.231 93.7302 158.012C93.3468 157.791 92.8918 157.68 92.3653 157.68C91.8341 157.677 91.3768 157.787 90.9935 158.008C90.6101 158.229 90.4207 158.493 90.4254 158.8C90.4254 159.104 90.617 159.367 91.0004 159.588C91.3792 159.807 91.8364 159.919 92.3722 159.924ZM96.3404 157.585L95.7376 154.853L96.1256 154.629L99.5898 156.629L99.1325 156.893L96.4651 155.353L97.0679 158.085L96.6799 158.309L93.2157 156.309L93.673 156.045L96.3404 157.585ZM99.9679 152.315C100.476 152.022 101.081 151.875 101.783 151.875C102.485 151.87 103.093 152.015 103.605 152.311C104.113 152.605 104.367 152.956 104.367 153.367C104.358 153.772 104.102 154.12 103.598 154.411C103.136 154.678 102.584 154.823 101.942 154.847C101.296 154.863 100.723 154.754 100.224 154.519L99.5037 154.935L101.014 155.807L100.557 156.071L97.0926 154.071L97.5499 153.807L99.0602 154.679L99.7808 154.263C99.3743 153.97 99.1873 153.64 99.2196 153.275C99.2519 152.904 99.5014 152.585 99.9679 152.315ZM101.79 154.487C102.317 154.487 102.772 154.376 103.155 154.155C103.538 153.934 103.73 153.671 103.73 153.367C103.721 153.058 103.527 152.794 103.148 152.575C102.765 152.354 102.31 152.243 101.783 152.243C101.252 152.241 100.795 152.35 100.411 152.571C100.028 152.792 99.8385 153.056 99.8432 153.363C99.8432 153.667 100.035 153.93 100.418 154.151C100.797 154.37 101.254 154.482 101.79 154.487ZM106.202 152.452C106.308 152.513 106.361 152.587 106.361 152.672C106.361 152.757 106.308 152.831 106.202 152.892C106.096 152.953 105.969 152.984 105.821 152.984C105.673 152.984 105.546 152.953 105.44 152.892C105.333 152.831 105.28 152.757 105.28 152.672C105.28 152.587 105.333 152.513 105.44 152.452C105.546 152.391 105.673 152.36 105.821 152.36C105.969 152.36 106.096 152.391 106.202 152.452Z" fill="white"/>
<mask id="mask0_161_619" style="mask-type:alpha" maskUnits="userSpaceOnUse" x="0" y="0" width="364" height="416">
<rect x="0.5" y="0.5" width="363" height="415" rx="14.5" fill="black" stroke="url(#paint1_linear_161_619)"/>
</mask>
<g mask="url(#mask0_161_619)">
<rect x="0.866044" width="224.348" height="54.5206" rx="4.5" transform="matrix(0.866044 -0.499967 0.866044 0.499967 -24.884 107.1)" fill="#0C0C0C" stroke="url(#paint2_linear_161_619)"/>
<path d="M6.21822 101.451L6.97168 101.016L13.034 104.516L12.4278 104.866L7.28346 101.896L8.71243 105.171L8.62582 105.221L2.95323 104.396L8.09754 107.366L7.49131 107.716L1.429 104.216L2.18246 103.781L7.57791 104.566L6.21822 101.451ZM14.5739 99.6072L13.7251 99.1173L14.2967 98.7873L18.6269 101.287L18.0554 101.617L17.2066 101.127C17.4434 101.724 17.1778 102.244 16.4099 102.687C15.7921 103.044 15.0444 103.222 14.1668 103.222C13.295 103.219 12.5415 103.034 11.9064 102.667C11.2713 102.3 10.9509 101.865 10.9451 101.362C10.9451 100.855 11.254 100.424 11.8718 100.067C12.6397 99.6239 13.5404 99.4706 14.5739 99.6072ZM14.1928 102.757C14.851 102.757 15.4197 102.619 15.8989 102.342C16.3781 102.065 16.6177 101.737 16.6177 101.357C16.6062 100.97 16.3637 100.641 15.8902 100.367C15.411 100.091 14.8423 99.9522 14.1841 99.9522C13.5202 99.9489 12.9486 100.086 12.4694 100.362C11.9902 100.639 11.7534 100.969 11.7592 101.352C11.7592 101.732 11.9988 102.06 12.478 102.337C12.9515 102.61 13.5231 102.75 14.1928 102.757ZM20.4607 97.4087L18.5727 96.3187L19.1443 95.9888L23.4746 98.4886L22.903 98.8186L21.015 97.7286L18.5208 99.1686L20.4088 100.258L19.8372 100.588L15.507 98.0886L16.0785 97.7586L17.9665 98.8486L20.4607 97.4087ZM24.2589 96.8859L23.5055 93.4711L23.9905 93.1911L28.3207 95.6909L27.7491 96.0209L24.4148 94.096L25.1683 97.5108L24.6833 97.7908L20.3531 95.291L20.9247 94.961L24.2589 96.8859ZM28.4555 93.0133L33.0282 92.9733L32.2661 93.4132L28.0138 93.4582L30.101 94.6631L29.5294 94.9931L25.1992 92.4933L25.7708 92.1633L27.6848 93.2682L27.832 90.9734L28.6114 90.5234L28.4555 93.0133ZM33.0728 87.8279C33.7079 87.4612 34.4642 87.2779 35.3418 87.2779C36.2194 87.2713 36.9786 87.4529 37.6195 87.8229C38.2546 88.1895 38.5721 88.6295 38.5721 89.1428C38.5606 89.6494 38.2402 90.0844 37.6108 90.4477C37.0335 90.781 36.3435 90.9627 35.541 90.9927C34.7327 91.0127 34.0168 90.876 33.3932 90.5827L32.4925 91.1027L34.3805 92.1926L33.8089 92.5226L29.4787 90.0227L30.0503 89.6928L31.9382 90.7827L32.8389 90.2627C32.3309 89.8961 32.097 89.4844 32.1374 89.0278C32.1779 88.5645 32.4896 88.1645 33.0728 87.8279ZM35.3505 90.5427C36.0087 90.5427 36.5774 90.4044 37.0566 90.1277C37.5358 89.8511 37.7754 89.5228 37.7754 89.1428C37.7638 88.7562 37.5213 88.4262 37.0479 88.1529C36.5687 87.8762 36 87.7379 35.3418 87.7379C34.6778 87.7346 34.1062 87.8712 33.627 88.1479C33.1478 88.4245 32.9111 88.7545 32.9169 89.1378C32.9169 89.5178 33.1565 89.8461 33.6357 90.1227C34.1091 90.3961 34.6807 90.536 35.3505 90.5427ZM38.6224 84.6241C39.2402 84.2674 39.985 84.0908 40.8568 84.0941C41.7344 84.0941 42.4908 84.2774 43.1258 84.6441C43.7609 85.0107 44.0785 85.4474 44.0785 85.954C44.0843 86.4573 43.7783 86.8873 43.1605 87.2439C42.3926 87.6872 41.4919 87.8405 40.4584 87.7039L43.0392 89.1938L42.4677 89.5238L36.4053 86.024L36.9769 85.694L37.8257 86.184C37.5889 85.5873 37.8545 85.0674 38.6224 84.6241ZM40.8568 87.3639C41.515 87.3639 42.0837 87.2256 42.5629 86.9489C43.0421 86.6723 43.2817 86.344 43.2817 85.964C43.2702 85.5773 43.0277 85.2474 42.5543 84.9741C42.075 84.6974 41.5063 84.5591 40.8482 84.5591C40.1842 84.5557 39.6126 84.6924 39.1334 84.9691C38.6542 85.2457 38.4175 85.5757 38.4232 85.959C38.4232 86.339 38.6628 86.6673 39.142 86.9439C39.6155 87.2172 40.1871 87.3572 40.8568 87.3639Z" fill="white"/>
<path d="M16.3038 111.811L21.1952 111.867L20.5578 112.235L15.9366 112.191L18.2853 113.547L17.8003 113.827L12.9504 111.027L13.4354 110.747L15.6525 112.027L15.6386 109.476L16.2761 109.108L16.3038 111.811ZM20.0595 108.427C20.5537 108.142 21.1495 108.001 21.847 108.003C22.5491 108.003 23.1541 108.15 23.6622 108.443C24.1703 108.737 24.4243 109.086 24.4243 109.491C24.429 109.894 24.1842 110.238 23.6899 110.523C23.0756 110.878 22.3551 111 21.5283 110.891L23.5929 112.083L23.1357 112.347L18.2858 109.547L18.7431 109.283L19.4221 109.675C19.2327 109.198 19.4452 108.782 20.0595 108.427ZM21.847 110.619C22.3735 110.619 22.8285 110.508 23.2119 110.287C23.5952 110.066 23.7869 109.803 23.7869 109.499C23.7777 109.19 23.5837 108.926 23.205 108.707C22.8216 108.486 22.3666 108.375 21.8401 108.375C21.3089 108.373 20.8516 108.482 20.4683 108.703C20.0849 108.925 19.8955 109.189 19.9001 109.495C19.9001 109.799 20.0918 110.062 20.4752 110.283C20.8539 110.502 21.3112 110.614 21.847 110.619ZM26.3486 105.677L25.6697 105.285L26.1269 105.021L29.5911 107.02L29.1338 107.284L28.4549 106.892C28.6442 107.37 28.4318 107.786 27.8174 108.14C27.3232 108.426 26.7251 108.568 26.023 108.568C25.3256 108.566 24.7228 108.418 24.2147 108.124C23.7066 107.831 23.4503 107.483 23.4457 107.08C23.4457 106.675 23.6928 106.33 24.187 106.044C24.8013 105.69 25.5219 105.567 26.3486 105.677ZM26.0438 108.196C26.5703 108.196 27.0253 108.086 27.4087 107.864C27.792 107.643 27.9837 107.38 27.9837 107.076C27.9745 106.767 27.7805 106.503 27.4017 106.284C27.0184 106.063 26.5634 105.952 26.0369 105.952C25.5057 105.95 25.0484 106.059 24.665 106.28C24.2817 106.502 24.0923 106.766 24.0969 107.072C24.0969 107.376 24.2886 107.639 24.672 107.86C25.0507 108.079 25.508 108.191 26.0438 108.196ZM32.2567 105.578C31.7348 105.879 31.1274 106.03 30.4346 106.03C29.7325 106.024 29.1274 105.875 28.6194 105.582C28.1067 105.286 27.8503 104.938 27.8503 104.538C27.8457 104.135 28.1043 103.783 28.6263 103.482C28.9681 103.284 29.3584 103.155 29.7972 103.094C30.2313 103.03 30.6494 103.042 31.0512 103.13L30.8919 103.47C30.5916 103.403 30.2775 103.395 29.9496 103.446C29.6217 103.491 29.3284 103.588 29.0697 103.738C28.6863 103.959 28.497 104.223 28.5016 104.53C28.5016 104.834 28.6933 105.096 29.0766 105.318C29.4554 105.536 29.9126 105.648 30.4484 105.654C30.975 105.654 31.43 105.543 31.8133 105.322C32.0674 105.175 32.236 105.008 32.3191 104.822C32.4069 104.632 32.4022 104.443 32.3052 104.254L32.908 104.162C33.042 104.404 33.0512 104.652 32.9357 104.906C32.8202 105.159 32.5939 105.383 32.2567 105.578ZM36.8147 102.346C36.8055 102.752 36.5491 103.1 36.0457 103.39C35.533 103.686 34.9279 103.835 34.2305 103.838C33.5284 103.838 32.921 103.69 32.4083 103.394C31.8956 103.098 31.6416 102.749 31.6462 102.346C31.6462 101.941 31.9025 101.59 32.4152 101.294C32.9233 101.001 33.5284 100.854 34.2305 100.854C34.9325 100.849 35.5399 100.994 36.0526 101.29C36.5607 101.584 36.8147 101.936 36.8147 102.346ZM34.2374 103.466C34.7639 103.466 35.2189 103.356 35.6023 103.134C35.9856 102.913 36.1773 102.65 36.1773 102.346C36.1681 102.037 35.9741 101.773 35.5953 101.554C35.212 101.333 34.757 101.222 34.2305 101.222C33.6993 101.22 33.242 101.329 32.8586 101.55C32.4753 101.772 32.2859 102.036 32.2905 102.342C32.2905 102.646 32.4822 102.909 32.8656 103.13C33.2443 103.349 33.7016 103.461 34.2374 103.466ZM34.5347 100.167L37.4446 98.4868L37.888 98.7428L36.6617 99.4508L39.6825 101.195L39.2252 101.459L36.2044 99.7148L34.9781 100.423L34.5347 100.167ZM41.5247 96.9154L40.8457 96.5234L41.303 96.2594L44.7672 98.2593L44.3099 98.5233L43.6309 98.1313C43.8203 98.6086 43.6078 99.0246 42.9935 99.3792C42.4993 99.6645 41.9012 99.8072 41.1991 99.8072C40.5016 99.8045 39.8989 99.6565 39.3908 99.3632C38.8827 99.0699 38.6263 98.7219 38.6217 98.3193C38.6217 97.914 38.8688 97.5686 39.3631 97.2833C39.9774 96.9287 40.6979 96.806 41.5247 96.9154ZM41.2199 99.4352C41.7464 99.4352 42.2014 99.3245 42.5847 99.1032C42.9681 98.8819 43.1598 98.6192 43.1598 98.3153C43.1506 98.006 42.9566 97.742 42.5778 97.5233C42.1945 97.302 41.7395 97.1913 41.2129 97.1913C40.6818 97.1887 40.2245 97.298 39.8411 97.5193C39.4578 97.7406 39.2684 98.0046 39.273 98.3113C39.273 98.6152 39.4647 98.8779 39.848 99.0992C40.2268 99.3179 40.6841 99.4299 41.2199 99.4352ZM47.8901 94.4006C48.4074 94.2619 48.867 94.3086 49.2688 94.5405C49.5552 94.7059 49.6915 94.8965 49.6776 95.1125C49.6684 95.3258 49.4928 95.5311 49.151 95.7285L47.4675 96.7004L44.0033 94.7005L45.5483 93.8086C45.8809 93.6166 46.225 93.5166 46.5806 93.5086C46.9409 93.4979 47.2596 93.5726 47.5367 93.7326C47.8832 93.9326 48.0009 94.1552 47.8901 94.4006ZM45.9917 94.0646L44.904 94.6925L45.9571 95.3005L47.0448 94.6725C47.4467 94.4405 47.4675 94.2206 47.1072 94.0126C46.9455 93.9192 46.7677 93.8779 46.5737 93.8886C46.3797 93.8939 46.1857 93.9526 45.9917 94.0646ZM47.4813 96.1804L48.7076 95.4725C48.9109 95.3552 49.0171 95.2378 49.0263 95.1205C49.0402 95.0005 48.9594 94.8899 48.7838 94.7885C48.6176 94.6925 48.4328 94.6499 48.2296 94.6605C48.031 94.6685 47.83 94.7312 47.6268 94.8485L46.4005 95.5565L47.4813 96.1804ZM51.8046 92.1167L55.4628 92.0847L54.8531 92.4367L51.4513 92.4727L53.121 93.4366L52.6637 93.7006L49.1995 91.7007L49.6568 91.4367L51.188 92.3207L51.3058 90.4848L51.9293 90.1248L51.8046 92.1167ZM55.9362 88.5956L55.2573 88.2036L55.7145 87.9396L59.1787 89.9395L58.7214 90.2035L58.0424 89.8115C58.2318 90.2888 58.0194 90.7048 57.405 91.0594C56.9108 91.3447 56.3127 91.4874 55.6106 91.4874C54.9131 91.4847 54.3104 91.3367 53.8023 91.0434C53.2942 90.7501 53.0379 90.4021 53.0332 89.9995C53.0332 89.5942 53.2804 89.2489 53.7746 88.9636C54.3889 88.6089 55.1094 88.4863 55.9362 88.5956ZM55.6314 91.1154C56.1579 91.1154 56.6129 91.0048 56.9963 90.7834C57.3796 90.5621 57.5713 90.2995 57.5713 89.9955C57.5621 89.6862 57.3681 89.4222 56.9893 89.2035C56.606 88.9822 56.151 88.8716 55.6245 88.8716C55.0933 88.8689 54.636 88.9782 54.2526 89.1995C53.8693 89.4209 53.6799 89.6848 53.6845 89.9915C53.6845 90.2955 53.8762 90.5581 54.2596 90.7794C54.6383 90.9981 55.0956 91.1101 55.6314 91.1154ZM60.8397 86.9007L64.193 87.0447L63.6388 87.3647L60.5557 87.2167L62.2254 88.1806L61.7681 88.4446L60.0984 87.4807L60.3547 89.2606L59.8005 89.5806L59.551 87.6447L56.4056 87.5407L56.9598 87.2207L59.842 87.3327L58.3039 86.4448L58.7612 86.1808L60.2993 87.0687L60.1053 85.4048L60.6596 85.0848L60.8397 86.9007ZM64.2611 83.0057L67.2819 84.7496L67.7669 84.4696L69.1387 85.2615L68.6814 85.5255L67.753 84.9895L64.9263 86.6214L65.8547 87.1574L65.3974 87.4214L64.0256 86.6294L64.4482 86.3854C64.3697 86.0681 64.051 85.7482 63.4921 85.4255L61.7808 84.4376L64.2611 83.0057ZM65.0025 86.0655L66.8246 85.0135L64.2473 83.5256L62.6815 84.4296L63.9494 85.1615C64.4852 85.4708 64.8362 85.7722 65.0025 86.0655ZM71.2332 82.4765C71.224 82.8818 70.9676 83.2297 70.4642 83.5204C69.9515 83.8164 69.3464 83.9657 68.6489 83.9684C67.9469 83.9684 67.3395 83.8204 66.8268 83.5244C66.3141 83.2284 66.0601 82.8791 66.0647 82.4765C66.0647 82.0711 66.321 81.7205 66.8337 81.4245C67.3418 81.1312 67.9469 80.9846 68.6489 80.9846C69.351 80.9792 69.9584 81.1245 70.4711 81.4205C70.9792 81.7138 71.2332 82.0658 71.2332 82.4765ZM68.6559 83.5964C69.1824 83.5964 69.6374 83.4857 70.0208 83.2644C70.4041 83.0431 70.5958 82.7804 70.5958 82.4765C70.5866 82.1671 70.3926 81.9032 70.0138 81.6845C69.6305 81.4632 69.1755 81.3525 68.6489 81.3525C68.1178 81.3499 67.6605 81.4592 67.2771 81.6805C66.8938 81.9018 66.7044 82.1658 66.709 82.4725C66.709 82.7764 66.9007 83.0391 67.2841 83.2604C67.6628 83.4791 68.1201 83.591 68.6559 83.5964ZM71.3056 78.2989L69.5042 79.3389L69.1024 79.1069L70.9037 78.067L71.3056 78.2989ZM72.6289 81.2548L72.0261 78.5229L72.4141 78.2989L75.8783 80.2988L75.421 80.5628L72.7536 79.0229L73.3564 81.7547L72.9684 81.9787L69.5042 79.9788L69.9615 79.7149L72.6289 81.2548ZM78.0231 75.0609L81.0439 76.8048L81.5289 76.5248L82.9007 77.3167L82.4434 77.5807L81.515 77.0447L78.6882 78.6766L79.6166 79.2126L79.1594 79.4766L77.7876 78.6846L78.2102 78.4407C78.1317 78.1233 77.813 77.8034 77.2541 77.4807L75.5428 76.4928L78.0231 75.0609ZM78.7645 78.1207L80.5866 77.0687L78.0093 75.5808L76.4435 76.4848L77.7113 77.2167C78.2471 77.526 78.5982 77.8274 78.7645 78.1207ZM80.5818 73.4877C81.0992 73.1891 81.695 73.0558 82.3694 73.0878C83.0483 73.1118 83.6349 73.2664 84.1292 73.5517C84.1523 73.5651 84.2192 73.6091 84.3301 73.6837L81.2885 75.4396C81.6811 75.6129 82.1061 75.6876 82.5634 75.6636C83.0206 75.6396 83.4363 75.5196 83.8105 75.3036C84.337 74.9996 84.5125 74.6717 84.337 74.3197L84.9744 74.2237C85.0714 74.4557 85.0576 74.6903 84.9329 74.9276C84.8081 75.1596 84.5795 75.3716 84.2469 75.5636C83.7019 75.8782 83.0876 76.0356 82.404 76.0356C81.7204 76.0356 81.1153 75.8836 80.5888 75.5796C80.0668 75.2783 79.8036 74.9316 79.7989 74.5397C79.7897 74.145 80.0507 73.7944 80.5818 73.4877ZM81.0253 73.7437C80.665 73.9517 80.4687 74.1877 80.4364 74.4517C80.4086 74.713 80.5449 74.957 80.8451 75.1836L83.4294 73.6917C83.0091 73.5077 82.5841 73.4251 82.1546 73.4437C81.7112 73.4651 81.3347 73.5651 81.0253 73.7437ZM82.5596 72.442L85.4695 70.7621L85.9129 71.0181L84.6866 71.726L87.7073 73.4699L87.2501 73.7339L84.2293 71.99L83.003 72.698L82.5596 72.442ZM89.5496 69.1906L88.8706 68.7986L89.3279 68.5346L92.792 70.5345L92.3348 70.7985L91.6558 70.4065C91.8452 70.8838 91.6327 71.2998 91.0184 71.6544C90.5242 71.9398 89.926 72.0824 89.2239 72.0824C88.5265 72.0797 87.9237 71.9318 87.4156 71.6384C86.9076 71.3451 86.6512 70.9972 86.6466 70.5945C86.6466 70.1892 86.8937 69.8439 87.3879 69.5586C88.0022 69.2039 88.7228 69.0813 89.5496 69.1906ZM89.2447 71.7104C89.7713 71.7104 90.2262 71.5998 90.6096 71.3785C90.993 71.1571 91.1847 70.8945 91.1847 70.5905C91.1754 70.2812 90.9814 70.0172 90.6027 69.7986C90.2193 69.5772 89.7644 69.4666 89.2378 69.4666C88.7066 69.4639 88.2494 69.5732 87.866 69.7946C87.4826 70.0159 87.2932 70.2799 87.2979 70.5865C87.2979 70.8905 87.4895 71.1531 87.8729 71.3745C88.2517 71.5931 88.7089 71.7051 89.2447 71.7104ZM90.6563 67.7677L93.1367 66.3358L96.6009 68.3357L96.1436 68.5997L93.1228 66.8558L91.557 67.7597L93.102 68.6517C93.6794 68.985 93.9658 69.2783 93.9611 69.5316C93.9611 69.7823 93.7556 70.0102 93.3445 70.2156L92.915 69.9676C93.2106 69.8289 93.3422 69.6783 93.3099 69.5156C93.2776 69.353 93.0558 69.153 92.6448 68.9157L90.6563 67.7677ZM97.23 67.0526L96.6272 64.3207L97.0152 64.0967L100.479 66.0966L100.022 66.3606L97.3547 64.8207L97.9575 67.5525L97.5695 67.7765L94.1053 65.7766L94.5626 65.5127L97.23 67.0526ZM101.827 64.9584C101.934 65.0197 101.987 65.0931 101.987 65.1784C101.987 65.2637 101.934 65.3371 101.827 65.3984C101.721 65.4597 101.594 65.4904 101.446 65.4904C101.299 65.4904 101.172 65.4597 101.065 65.3984C100.959 65.3371 100.906 65.2637 100.906 65.1784C100.906 65.0931 100.959 65.0197 101.065 64.9584C101.172 64.8971 101.299 64.8664 101.446 64.8664C101.594 64.8664 101.721 64.8971 101.827 64.9584ZM105.018 60.5728C105.36 60.4928 105.704 60.4728 106.05 60.5128C106.396 60.5528 106.699 60.6475 106.958 60.7968C107.332 61.0128 107.519 61.2728 107.519 61.5768C107.519 61.8807 107.332 62.1407 106.958 62.3567L104.845 63.5766L99.9947 60.7768L101.948 59.6489C102.304 59.4436 102.741 59.3409 103.258 59.3409C103.766 59.3409 104.198 59.4436 104.554 59.6489C105.006 59.9102 105.161 60.2182 105.018 60.5728ZM102.406 59.9129L100.937 60.7608L102.627 61.7367L104.096 60.8888C104.318 60.7608 104.429 60.6035 104.429 60.4168C104.42 60.2248 104.299 60.0622 104.069 59.9289C103.842 59.7982 103.563 59.7302 103.23 59.7249C102.902 59.7222 102.627 59.7849 102.406 59.9129ZM104.872 63.0327L106.5 62.0927C106.741 61.9541 106.858 61.7874 106.854 61.5928C106.854 61.3954 106.727 61.2234 106.473 61.0768C106.223 60.9328 105.928 60.8608 105.586 60.8608C105.244 60.8555 104.953 60.9221 104.713 61.0608L103.085 62.0007L104.872 63.0327ZM109.266 57.8085L108.587 57.4166L109.044 57.1526L112.508 59.1524L112.051 59.4164L111.372 59.0245C111.561 59.5018 111.349 59.9177 110.734 60.2724C110.24 60.5577 109.642 60.7003 108.94 60.7003C108.243 60.6977 107.64 60.5497 107.132 60.2564C106.624 59.9631 106.367 59.6151 106.363 59.2124C106.363 58.8071 106.61 58.4618 107.104 58.1765C107.718 57.8219 108.439 57.6992 109.266 57.8085ZM108.961 60.3284C109.487 60.3284 109.942 60.2177 110.326 59.9964C110.709 59.7751 110.901 59.5124 110.901 59.2084C110.891 58.8991 110.697 58.6351 110.319 58.4165C109.935 58.1952 109.48 58.0845 108.954 58.0845C108.423 58.0818 107.965 58.1912 107.582 58.4125C107.199 58.6338 107.009 58.8978 107.014 59.2044C107.014 59.5084 107.206 59.7711 107.589 59.9924C107.968 60.211 108.425 60.323 108.961 60.3284ZM117.218 55.9217L114.197 54.1778L114.654 53.9138L118.118 55.9137L113.476 58.5935L110.012 56.5936L110.469 56.3297L113.49 58.0735L115.125 57.1296L112.104 55.3857L112.562 55.1217L115.582 56.8656L117.218 55.9217ZM119.279 52.0277L118.6 51.6357L119.058 51.3717L122.522 53.3716L122.064 53.6356L121.385 53.2436C121.575 53.7209 121.362 54.1369 120.748 54.4915C120.254 54.7768 119.656 54.9195 118.954 54.9195C118.256 54.9168 117.653 54.7688 117.145 54.4755C116.637 54.1822 116.381 53.8342 116.376 53.4316C116.376 53.0263 116.623 52.6809 117.118 52.3956C117.732 52.041 118.452 51.9183 119.279 52.0277ZM118.974 54.5475C119.501 54.5475 119.956 54.4368 120.339 54.2155C120.723 53.9942 120.914 53.7315 120.914 53.4276C120.905 53.1183 120.711 52.8543 120.332 52.6356C119.949 52.4143 119.494 52.3036 118.967 52.3036C118.436 52.301 117.979 52.4103 117.596 52.6316C117.212 52.8529 117.023 53.1169 117.028 53.4236C117.028 53.7275 117.219 53.9902 117.603 54.2115C117.981 54.4302 118.439 54.5422 118.974 54.5475ZM124.883 51.0888L124.28 48.3569L124.668 48.1329L128.132 50.1328L127.675 50.3968L125.007 48.8569L125.61 51.5887L125.222 51.8127L121.758 49.8128L122.215 49.5489L124.883 51.0888ZM128.545 45.8948L131.565 47.6387L132.05 47.3587L133.422 48.1507L132.965 48.4146L132.037 47.8787L129.21 49.5106L130.138 50.0465L129.681 50.3105L128.309 49.5186L128.732 49.2746C128.653 48.9573 128.334 48.6373 127.776 48.3147L126.064 47.3267L128.545 45.8948ZM129.286 48.9546L131.108 47.9027L128.531 46.4148L126.965 47.3187L128.233 48.0507C128.769 48.36 129.12 48.6613 129.286 48.9546ZM131.103 44.3217C131.621 44.023 132.217 43.8897 132.891 43.9217C133.57 43.9457 134.156 44.1003 134.651 44.3857C134.674 44.399 134.741 44.443 134.852 44.5176L131.81 46.2735C132.203 46.4469 132.628 46.5215 133.085 46.4975C133.542 46.4735 133.958 46.3535 134.332 46.1375C134.859 45.8336 135.034 45.5056 134.859 45.1536L135.496 45.0576C135.593 45.2896 135.579 45.5242 135.454 45.7616C135.33 45.9936 135.101 46.2055 134.768 46.3975C134.223 46.7122 133.609 46.8695 132.926 46.8695C132.242 46.8695 131.637 46.7175 131.11 46.4135C130.588 46.1122 130.325 45.7656 130.32 45.3736C130.311 44.979 130.572 44.6283 131.103 44.3217ZM131.547 44.5776C131.186 44.7856 130.99 45.0216 130.958 45.2856C130.93 45.5469 131.066 45.7909 131.367 46.0176L133.951 44.5256C133.531 44.3417 133.106 44.259 132.676 44.2777C132.233 44.299 131.856 44.399 131.547 44.5776ZM137.29 41.6299L136.611 41.2379L137.069 40.9739L140.533 42.9738L140.075 43.2378L139.396 42.8458C139.586 43.3231 139.373 43.7391 138.759 44.0937C138.265 44.3791 137.667 44.5217 136.965 44.5217C136.267 44.519 135.664 44.3711 135.156 44.0777C134.648 43.7844 134.392 43.4364 134.387 43.0338C134.387 42.6285 134.634 42.2832 135.129 41.9979C135.743 41.6432 136.463 41.5206 137.29 41.6299ZM136.985 44.1497C137.512 44.1497 137.967 44.0391 138.35 43.8178C138.734 43.5964 138.925 43.3338 138.925 43.0298C138.916 42.7205 138.722 42.4565 138.343 42.2379C137.96 42.0165 137.505 41.9059 136.978 41.9059C136.447 41.9032 135.99 42.0125 135.607 42.2339C135.223 42.4552 135.034 42.7192 135.039 43.0258C135.039 43.3298 135.23 43.5924 135.614 43.8138C135.992 44.0324 136.45 44.1444 136.985 44.1497ZM138.397 40.207L140.877 38.7751L144.342 40.775L143.884 41.039L140.864 39.2951L139.298 40.199L140.843 41.091C141.42 41.4243 141.706 41.7176 141.702 41.9709C141.702 42.2216 141.496 42.4495 141.085 42.6549L140.656 42.4069C140.951 42.2682 141.083 42.1176 141.051 41.9549C141.018 41.7923 140.797 41.5923 140.385 41.3549L138.397 40.207ZM143.62 38.7119L144.569 38.1639C144.888 37.9799 145.262 37.8813 145.691 37.868C146.116 37.852 146.486 37.9346 146.8 38.1159C147.118 38.2999 147.264 38.5146 147.236 38.7599C147.218 38.9999 147.045 39.2145 146.717 39.4039L145.31 40.2158L141.846 38.2159L142.303 37.952L143.62 38.7119ZM145.324 39.6958L146.273 39.1479C146.472 39.0332 146.58 38.9039 146.599 38.7599C146.613 38.6132 146.527 38.4866 146.342 38.3799C146.158 38.2733 145.941 38.2253 145.691 38.2359C145.437 38.2439 145.211 38.3053 145.012 38.4199L144.063 38.9679L145.324 39.6958ZM149.063 35.7932L147.553 34.9212L148.01 34.6573L151.474 36.6571L151.017 36.9211L149.507 36.0492L147.511 37.2011L149.022 38.073L148.565 38.337L145.1 36.3372L145.558 36.0732L147.068 36.9451L149.063 35.7932ZM152.635 32.7711L151.957 32.3791L152.414 32.1151L155.878 34.115L155.421 34.379L154.742 33.987C154.931 34.4643 154.719 34.8803 154.104 35.2349C153.61 35.5203 153.012 35.6629 152.31 35.6629C151.612 35.6602 151.01 35.5123 150.502 35.2189C149.993 34.9256 149.737 34.5777 149.733 34.175C149.733 33.7697 149.98 33.4244 150.474 33.1391C151.088 32.7844 151.809 32.6618 152.635 32.7711ZM152.331 35.2909C152.857 35.2909 153.312 35.1803 153.696 34.959C154.079 34.7376 154.271 34.475 154.271 34.171C154.261 33.8617 154.067 33.5977 153.689 33.3791C153.305 33.1577 152.85 33.0471 152.324 33.0471C151.793 33.0444 151.335 33.1537 150.952 33.3751C150.569 33.5964 150.379 33.8604 150.384 34.167C150.384 34.471 150.575 34.7336 150.959 34.955C151.338 35.1736 151.795 35.2856 152.331 35.2909ZM154.47 30.9283L155.876 30.1163L159.34 32.1162L158.883 32.3802L157.553 31.6122L156.957 31.9562L157.22 33.3401L156.638 33.6761L156.389 32.2682C156.066 32.4068 155.719 32.4735 155.35 32.4682C154.98 32.4575 154.659 32.3735 154.387 32.2162C154.077 32.0375 153.932 31.8255 153.95 31.5802C153.978 31.3296 154.151 31.1122 154.47 30.9283ZM156.174 31.9122L157.123 31.3642L155.862 30.6363L154.913 31.1842C154.715 31.2989 154.608 31.4296 154.594 31.5762C154.576 31.7202 154.659 31.8455 154.844 31.9522C155.029 32.0588 155.248 32.1082 155.502 32.1002C155.751 32.0895 155.975 32.0268 156.174 31.9122ZM26.336 117.251L24.5554 114.927L25.0404 114.647L27.3406 117.687C27.5531 117.97 27.6293 118.238 27.5693 118.491C27.5185 118.744 27.3314 118.951 27.0081 119.111L26.5785 118.863C27.045 118.652 27.1212 118.331 26.8072 117.899L26.6824 117.723L21.6455 116.607L22.1305 116.327L26.336 117.251ZM28.8217 114.392L31.9672 114.648L31.4198 114.964L28.9118 114.764L29.2582 116.212L28.7108 116.528L28.2743 114.708L25.3367 114.476L25.8841 114.16L28.1843 114.344L27.8656 113.016L28.4129 112.7L28.8217 114.392ZM34.812 112.502C34.8028 112.907 34.5464 113.255 34.043 113.546C33.5303 113.842 32.9252 113.991 32.2277 113.994C31.5257 113.994 30.9183 113.846 30.4056 113.55C29.8929 113.254 29.6388 112.904 29.6434 112.502C29.6434 112.097 29.8998 111.746 30.4125 111.45C30.9206 111.157 31.5257 111.01 32.2277 111.01C32.9298 111.005 33.5372 111.15 34.0499 111.446C34.558 111.739 34.812 112.091 34.812 112.502ZM32.2347 113.622C32.7612 113.622 33.2162 113.511 33.5995 113.29C33.9829 113.068 34.1746 112.806 34.1746 112.502C34.1654 112.193 33.9714 111.929 33.5926 111.71C33.2092 111.489 32.7543 111.378 32.2277 111.378C31.6966 111.375 31.2393 111.485 30.8559 111.706C30.4725 111.927 30.2832 112.191 30.2878 112.498C30.2878 112.802 30.4795 113.064 30.8628 113.286C31.2416 113.504 31.6989 113.616 32.2347 113.622ZM36.9626 109.684L40.3159 109.828L39.7617 110.148L36.6785 110L38.3483 110.964L37.891 111.228L36.2213 110.264L36.4776 112.044L35.9234 112.364L35.6739 110.428L32.5285 110.324L33.0827 110.004L35.9649 110.116L34.4268 109.228L34.8841 108.964L36.4222 109.852L36.2282 108.188L36.7825 107.869L36.9626 109.684ZM38.714 106.657C39.2313 106.359 39.8272 106.225 40.5015 106.257C41.1805 106.281 41.7671 106.436 42.2613 106.721C42.2844 106.735 42.3514 106.779 42.4623 106.853L39.4207 108.609C39.8133 108.783 40.2383 108.857 40.6955 108.833C41.1528 108.809 41.5685 108.689 41.9426 108.473C42.4692 108.169 42.6447 107.841 42.4692 107.489L43.1066 107.393C43.2036 107.625 43.1897 107.86 43.065 108.097C42.9403 108.329 42.7117 108.541 42.3791 108.733C41.8341 109.048 41.2198 109.205 40.5362 109.205C39.8526 109.205 39.2475 109.053 38.7209 108.749C38.199 108.448 37.9357 108.101 37.9311 107.709C37.9219 107.315 38.1828 106.964 38.714 106.657ZM39.1574 106.913C38.7972 107.121 38.6009 107.357 38.5685 107.621C38.5408 107.883 38.6771 108.127 38.9773 108.353L41.5616 106.861C41.1413 106.677 40.7163 106.595 40.2868 106.613C39.8433 106.635 39.4669 106.735 39.1574 106.913ZM45.2058 104.75L43.6954 103.878L44.1527 103.614L47.6168 105.614L47.1596 105.878L45.6492 105.006L43.6538 106.158L45.1642 107.029L44.7069 107.293L41.2428 105.294L41.7 105.03L43.2104 105.902L45.2058 104.75ZM49.0827 102.511L47.5723 101.64L48.0296 101.376L51.4937 103.375L51.0365 103.639L49.5261 102.767L47.5307 103.919L49.0411 104.791L48.5838 105.055L45.1197 103.055L45.5769 102.791L47.0873 103.663L49.0827 102.511ZM54.9272 100.889C54.918 101.295 54.6616 101.643 54.1582 101.933C53.6455 102.229 53.0404 102.379 52.343 102.381C51.6409 102.381 51.0335 102.233 50.5208 101.937C50.0081 101.641 49.7541 101.292 49.7587 100.889C49.7587 100.484 50.015 100.133 50.5277 99.8374C51.0358 99.5441 51.6409 99.3974 52.343 99.3974C53.045 99.3921 53.6524 99.5374 54.1651 99.8334C54.6732 100.127 54.9272 100.479 54.9272 100.889ZM52.3499 102.009C52.8764 102.009 53.3314 101.899 53.7148 101.677C54.0981 101.456 54.2898 101.193 54.2898 100.889C54.2806 100.58 54.0866 100.316 53.7078 100.097C53.3245 99.876 52.8695 99.7654 52.343 99.7654C51.8118 99.7627 51.3545 99.872 50.9711 100.093C50.5878 100.315 50.3984 100.579 50.403 100.885C50.403 101.189 50.5947 101.452 50.9781 101.673C51.3568 101.892 51.8141 102.004 52.3499 102.009ZM58.3599 99.5076C57.8379 99.8089 57.2305 99.9596 56.5377 99.9596C55.8356 99.9543 55.2305 99.8049 54.7225 99.5116C54.2098 99.2156 53.9534 98.8677 53.9534 98.4677C53.9488 98.0651 54.2075 97.7131 54.7294 97.4118C55.0712 97.2144 55.4615 97.0851 55.9003 97.0238C56.3345 96.9598 56.7525 96.9718 57.1543 97.0598L56.995 97.3998C56.6947 97.3331 56.3807 97.3251 56.0527 97.3758C55.7248 97.4211 55.4315 97.5184 55.1728 97.6677C54.7894 97.8891 54.6001 98.153 54.6047 98.4597C54.6047 98.7637 54.7964 99.0263 55.1797 99.2476C55.5585 99.4663 56.0158 99.5783 56.5516 99.5836C57.0781 99.5836 57.5331 99.473 57.9164 99.2516C58.1705 99.105 58.3391 98.9383 58.4222 98.7517C58.51 98.5624 58.5053 98.373 58.4084 98.1837L59.0111 98.0917C59.1451 98.3344 59.1543 98.5824 59.0388 98.8357C58.9234 99.089 58.697 99.313 58.3599 99.5076ZM56.5376 96.4639L59.4476 94.784L59.891 95.0399L58.6646 95.7479L61.6854 97.4918L61.2281 97.7558L58.2074 96.0119L56.9811 96.7198L56.5376 96.4639ZM61.7785 94.9582L62.7276 94.4103C63.0463 94.2263 63.4205 94.1276 63.85 94.1143C64.275 94.0983 64.6445 94.181 64.9586 94.3623C65.2773 94.5463 65.4228 94.7609 65.3951 95.0062C65.3766 95.2462 65.2034 95.4609 64.8754 95.6502L63.469 96.4621L60.0048 94.4623L60.4621 94.1983L61.7785 94.9582ZM63.4828 95.9422L64.432 95.3942C64.6306 95.2795 64.7392 95.1502 64.7576 95.0062C64.7715 94.8596 64.6861 94.7329 64.5013 94.6263C64.3165 94.5196 64.0995 94.4716 63.85 94.4823C63.596 94.4903 63.3697 94.5516 63.1711 94.6663L62.2219 95.2142L63.4828 95.9422ZM65.892 93.5434L65.5456 93.7434L63.2939 92.5635L61.9082 91.7635L62.4625 91.4436L63.8481 92.2435L65.892 93.5434ZM67.1045 94.0034C67.2107 94.0647 67.2638 94.138 67.2638 94.2234C67.2638 94.3087 67.2107 94.382 67.1045 94.4434C66.9982 94.5047 66.8712 94.5354 66.7234 94.5354C66.5756 94.5354 66.4486 94.5047 66.3423 94.4434C66.2361 94.382 66.183 94.3087 66.183 94.2234C66.183 94.138 66.2361 94.0647 66.3423 94.0034C66.4486 93.9421 66.5756 93.9114 66.7234 93.9114C66.8712 93.9114 66.9982 93.9421 67.1045 94.0034Z" fill="white"/>
<g filter="url(#filter0_f_161_619)">
<circle opacity="0.6" cx="14.853" cy="14.853" r="14.853" transform="matrix(0.891369 -0.453279 0.891369 0.453279 84 132.465)" fill="url(#paint3_radial_161_619)"/>
</g>
<g opacity="0.6" filter="url(#filter1_f_161_619)">
<ellipse cx="15.1619" cy="87.5013" rx="15.1619" ry="87.5013" transform="matrix(0.962625 0.270837 -0.34089 0.940103 154.81 -30)" fill="url(#paint4_linear_161_619)"/>
</g>
<g opacity="0.6" filter="url(#filter2_f_161_619)">
<ellipse cx="6.02256" cy="87.5013" rx="6.02256" ry="87.5013" transform="matrix(0.962625 0.270837 -0.34089 0.940103 163.508 -27.4761)" fill="url(#paint5_linear_161_619)"/>
</g>
</g>
<rect x="0.866044" width="224.348" height="54.5206" rx="4.5" transform="matrix(0.866044 -0.499967 0.866044 0.499967 103.116 203.1)" fill="#0C0C0C" stroke="url(#paint6_linear_161_619)"/>
<path d="M133.218 199.451L133.972 199.016L140.034 202.516L139.428 202.866L134.283 199.896L135.712 203.171L135.626 203.221L129.953 202.396L135.098 205.366L134.491 205.716L128.429 202.216L129.182 201.781L134.578 202.566L133.218 199.451ZM141.574 197.607L140.725 197.117L141.297 196.787L145.627 199.287L145.055 199.617L144.207 199.127C144.443 199.724 144.178 200.244 143.41 200.687C142.792 201.044 142.044 201.222 141.167 201.222C140.295 201.219 139.542 201.034 138.906 200.667C138.271 200.3 137.951 199.865 137.945 199.362C137.945 198.855 138.254 198.424 138.872 198.067C139.64 197.624 140.54 197.471 141.574 197.607ZM141.193 200.757C141.851 200.757 142.42 200.619 142.899 200.342C143.378 200.065 143.618 199.737 143.618 199.357C143.606 198.97 143.364 198.641 142.89 198.367C142.411 198.091 141.842 197.952 141.184 197.952C140.52 197.949 139.949 198.086 139.469 198.362C138.99 198.639 138.753 198.969 138.759 199.352C138.759 199.732 138.999 200.06 139.478 200.337C139.951 200.61 140.523 200.75 141.193 200.757ZM147.461 195.409L145.573 194.319L146.144 193.989L150.475 196.489L149.903 196.819L148.015 195.729L145.521 197.169L147.409 198.258L146.837 198.588L142.507 196.089L143.079 195.759L144.967 196.849L147.461 195.409ZM151.259 194.886L150.505 191.471L150.99 191.191L155.321 193.691L154.749 194.021L151.415 192.096L152.168 195.511L151.683 195.791L147.353 193.291L147.925 192.961L151.259 194.886ZM155.456 191.013L160.028 190.973L159.266 191.413L155.014 191.458L157.101 192.663L156.529 192.993L152.199 190.493L152.771 190.163L154.685 191.268L154.832 188.973L155.611 188.523L155.456 191.013ZM160.073 185.828C160.708 185.461 161.464 185.278 162.342 185.278C163.219 185.271 163.979 185.453 164.619 185.823C165.255 186.19 165.572 186.63 165.572 187.143C165.561 187.649 165.24 188.084 164.611 188.448C164.033 188.781 163.344 188.963 162.541 188.993C161.733 189.013 161.017 188.876 160.393 188.583L159.493 189.103L161.38 190.193L160.809 190.523L156.479 188.023L157.05 187.693L158.938 188.783L159.839 188.263C159.331 187.896 159.097 187.484 159.137 187.028C159.178 186.565 159.49 186.165 160.073 185.828ZM162.35 188.543C163.009 188.543 163.577 188.404 164.057 188.128C164.536 187.851 164.775 187.523 164.775 187.143C164.764 186.756 164.521 186.426 164.048 186.153C163.569 185.876 163 185.738 162.342 185.738C161.678 185.735 161.106 185.871 160.627 186.148C160.148 186.425 159.911 186.754 159.917 187.138C159.917 187.518 160.156 187.846 160.636 188.123C161.109 188.396 161.681 188.536 162.35 188.543ZM165.622 182.624C166.24 182.267 166.985 182.091 167.857 182.094C168.734 182.094 169.491 182.277 170.126 182.644C170.761 183.011 171.078 183.447 171.078 183.954C171.084 184.457 170.778 184.887 170.16 185.244C169.393 185.687 168.492 185.841 167.458 185.704L170.039 187.194L169.468 187.524L163.405 184.024L163.977 183.694L164.826 184.184C164.589 183.587 164.855 183.067 165.622 182.624ZM167.857 185.364C168.515 185.364 169.084 185.226 169.563 184.949C170.042 184.672 170.282 184.344 170.282 183.964C170.27 183.577 170.028 183.247 169.554 182.974C169.075 182.697 168.506 182.559 167.848 182.559C167.184 182.556 166.613 182.692 166.133 182.969C165.654 183.246 165.417 183.576 165.423 183.959C165.423 184.339 165.663 184.667 166.142 184.944C166.615 185.217 167.187 185.357 167.857 185.364Z" fill="white"/>
<path d="M143.782 206.816L144.385 206.468L149.234 209.267L148.749 209.547L144.634 207.172L145.777 209.791L145.708 209.831L141.17 209.171L145.285 211.547L144.8 211.827L139.95 209.027L140.553 208.679L144.87 209.307L143.782 206.816ZM150.466 205.34L149.787 204.948L150.245 204.685L153.709 206.684L153.252 206.948L152.573 206.556C152.762 207.034 152.549 207.45 151.935 207.804C151.441 208.09 150.843 208.232 150.141 208.232C149.443 208.23 148.84 208.082 148.332 207.788C147.824 207.495 147.568 207.147 147.563 206.744C147.563 206.339 147.81 205.994 148.305 205.708C148.919 205.354 149.64 205.231 150.466 205.34ZM150.161 207.86C150.688 207.86 151.143 207.75 151.526 207.528C151.91 207.307 152.101 207.044 152.101 206.74C152.092 206.431 151.898 206.167 151.519 205.948C151.136 205.727 150.681 205.616 150.155 205.616C149.623 205.614 149.166 205.723 148.783 205.944C148.399 206.166 148.21 206.43 148.215 206.736C148.215 207.04 148.406 207.303 148.79 207.524C149.168 207.743 149.626 207.855 150.161 207.86ZM155.176 203.582L153.665 202.71L154.123 202.446L157.587 204.446L157.13 204.71L155.619 203.838L153.624 204.99L155.134 205.861L154.677 206.125L151.213 204.126L151.67 203.862L153.18 204.734L155.176 203.582ZM158.214 203.163L157.612 200.432L158 200.208L161.464 202.207L161.007 202.471L158.339 200.931L158.942 203.663L158.554 203.887L155.09 201.887L155.547 201.623L158.214 203.163ZM161.572 200.065L165.23 200.033L164.62 200.385L161.218 200.421L162.888 201.385L162.431 201.649L158.967 199.649L159.424 199.385L160.955 200.269L161.073 198.433L161.696 198.073L161.572 200.065ZM165.265 195.917C165.774 195.624 166.379 195.477 167.081 195.477C167.783 195.472 168.39 195.617 168.903 195.913C169.411 196.206 169.665 196.558 169.665 196.969C169.656 197.374 169.399 197.722 168.896 198.013C168.434 198.279 167.882 198.425 167.24 198.449C166.593 198.465 166.021 198.355 165.522 198.121L164.801 198.537L166.312 199.409L165.854 199.673L162.39 197.673L162.847 197.409L164.358 198.281L165.078 197.865C164.672 197.572 164.485 197.242 164.517 196.877C164.55 196.506 164.799 196.186 165.265 195.917ZM167.088 198.089C167.614 198.089 168.069 197.978 168.453 197.757C168.836 197.536 169.028 197.273 169.028 196.969C169.018 196.66 168.824 196.396 168.446 196.177C168.062 195.956 167.607 195.845 167.081 195.845C166.55 195.842 166.092 195.952 165.709 196.173C165.326 196.394 165.136 196.658 165.141 196.965C165.141 197.269 165.332 197.532 165.716 197.753C166.095 197.972 166.552 198.084 167.088 198.089ZM169.705 193.354C170.199 193.069 170.795 192.927 171.493 192.93C172.195 192.93 172.8 193.077 173.308 193.37C173.816 193.663 174.07 194.013 174.07 194.418C174.075 194.82 173.83 195.164 173.336 195.45C172.721 195.804 172.001 195.927 171.174 195.818L173.239 197.01L172.781 197.274L167.932 194.474L168.389 194.21L169.068 194.602C168.878 194.125 169.091 193.709 169.705 193.354ZM171.493 195.546C172.019 195.546 172.474 195.435 172.858 195.214C173.241 194.992 173.433 194.73 173.433 194.426C173.423 194.117 173.229 193.853 172.851 193.634C172.467 193.413 172.012 193.302 171.486 193.302C170.955 193.299 170.497 193.409 170.114 193.63C169.731 193.851 169.541 194.115 169.546 194.422C169.546 194.726 169.738 194.988 170.121 195.21C170.5 195.428 170.957 195.54 171.493 195.546ZM179.23 192.047C178.708 192.348 178.101 192.499 177.408 192.499C176.706 192.494 176.101 192.344 175.592 192.051C175.08 191.755 174.823 191.407 174.823 191.007C174.819 190.604 175.077 190.252 175.599 189.951C175.941 189.754 176.332 189.625 176.77 189.563C177.204 189.499 177.623 189.511 178.024 189.599L177.865 189.939C177.565 189.873 177.251 189.865 176.923 189.915C176.595 189.961 176.302 190.058 176.043 190.207C175.659 190.428 175.47 190.692 175.475 190.999C175.475 191.303 175.666 191.566 176.05 191.787C176.429 192.006 176.886 192.118 177.422 192.123C177.948 192.123 178.403 192.012 178.786 191.791C179.041 191.644 179.209 191.478 179.292 191.291C179.38 191.102 179.375 190.912 179.278 190.723L179.881 190.631C180.015 190.874 180.024 191.122 179.909 191.375C179.793 191.628 179.567 191.852 179.23 192.047ZM179.983 187.516L182.464 186.084L185.928 188.084L185.471 188.348L182.45 186.604L180.884 187.508L182.429 188.4C183.006 188.734 183.293 189.027 183.288 189.28C183.288 189.531 183.083 189.759 182.672 189.964L182.242 189.716C182.538 189.578 182.669 189.427 182.637 189.264C182.605 189.102 182.383 188.902 181.972 188.664L179.983 187.516ZM186.308 183.769C186.816 183.476 187.421 183.329 188.123 183.329C188.825 183.324 189.432 183.469 189.945 183.765C190.453 184.059 190.707 184.411 190.707 184.821C190.698 185.227 190.442 185.575 189.938 185.865C189.476 186.132 188.924 186.277 188.282 186.301C187.636 186.317 187.063 186.208 186.564 185.973L185.843 186.389L187.354 187.261L186.897 187.525L183.432 185.525L183.89 185.261L185.4 186.133L186.121 185.717C185.714 185.424 185.527 185.095 185.559 184.729C185.592 184.359 185.841 184.039 186.308 183.769ZM188.13 185.941C188.656 185.941 189.111 185.831 189.495 185.609C189.878 185.388 190.07 185.125 190.07 184.821C190.06 184.512 189.866 184.248 189.488 184.029C189.104 183.808 188.649 183.697 188.123 183.697C187.592 183.695 187.134 183.804 186.751 184.025C186.368 184.247 186.178 184.511 186.183 184.817C186.183 185.121 186.375 185.384 186.758 185.605C187.137 185.824 187.594 185.936 188.13 185.941ZM194.059 183.486C193.565 183.771 192.985 183.917 192.32 183.922C191.655 183.922 191.059 183.77 190.533 183.466C189.941 183.125 189.576 182.813 189.438 182.53C189.295 182.245 189.362 181.873 189.639 181.414C189.731 181.27 189.805 181.158 189.861 181.078C189.958 180.948 190.029 180.842 190.075 180.762C190.292 180.424 190.267 180.174 189.999 180.014L190.567 179.926C190.66 180.006 190.727 180.088 190.768 180.17C190.81 180.264 190.83 180.345 190.83 180.414C190.835 180.481 190.812 180.569 190.761 180.678C190.729 180.75 190.685 180.834 190.63 180.93L190.429 181.214L190.242 181.482C190.061 181.746 189.969 181.968 189.964 182.146C189.96 182.32 190.045 182.494 190.221 182.67C190.17 182.47 190.214 182.272 190.352 182.074C190.486 181.874 190.676 181.704 190.921 181.562C191.382 181.296 191.916 181.164 192.521 181.166C193.126 181.164 193.664 181.298 194.135 181.57C194.602 181.84 194.828 182.157 194.814 182.522C194.8 182.882 194.549 183.203 194.059 183.486ZM192.362 183.546C192.828 183.538 193.242 183.43 193.602 183.222C193.962 183.014 194.149 182.781 194.163 182.522C194.177 182.258 194.015 182.029 193.678 181.834C193.336 181.637 192.946 181.54 192.507 181.542C192.068 181.54 191.667 181.644 191.302 181.854C190.974 182.044 190.78 182.276 190.72 182.55C190.65 182.82 190.789 183.054 191.135 183.254C191.486 183.457 191.895 183.554 192.362 183.546ZM198.835 180.129C198.826 180.534 198.57 180.882 198.066 181.173C197.554 181.469 196.949 181.618 196.251 181.621C195.549 181.621 194.942 181.473 194.429 181.177C193.916 180.881 193.662 180.531 193.667 180.129C193.667 179.724 193.923 179.373 194.436 179.077C194.944 178.784 195.549 178.637 196.251 178.637C196.953 178.632 197.561 178.777 198.073 179.073C198.581 179.366 198.835 179.718 198.835 180.129ZM196.258 181.249C196.785 181.249 197.24 181.138 197.623 180.917C198.006 180.695 198.198 180.433 198.198 180.129C198.189 179.82 197.995 179.556 197.616 179.337C197.233 179.116 196.778 179.005 196.251 179.005C195.72 179.002 195.263 179.112 194.879 179.333C194.496 179.554 194.307 179.818 194.311 180.125C194.311 180.429 194.503 180.691 194.886 180.913C195.265 181.131 195.722 181.243 196.258 181.249ZM200.993 177.331C201.511 177.193 201.97 177.239 202.372 177.471C202.658 177.637 202.795 177.827 202.781 178.043C202.771 178.256 202.596 178.462 202.254 178.659L200.571 179.631L197.106 177.631L198.651 176.739C198.984 176.547 199.328 176.447 199.684 176.439C200.044 176.429 200.363 176.503 200.64 176.663C200.986 176.863 201.104 177.086 200.993 177.331ZM199.095 176.995L198.007 177.623L199.06 178.231L200.148 177.603C200.55 177.371 200.571 177.151 200.21 176.943C200.049 176.85 199.871 176.809 199.677 176.819C199.483 176.825 199.289 176.883 199.095 176.995ZM200.584 179.111L201.811 178.403C202.014 178.286 202.12 178.169 202.129 178.051C202.143 177.931 202.062 177.821 201.887 177.719C201.721 177.623 201.536 177.581 201.333 177.591C201.134 177.599 200.933 177.662 200.73 177.779L199.504 178.487L200.584 179.111ZM202.344 176.127L203.293 175.579C203.612 175.395 203.986 175.297 204.416 175.283C204.841 175.267 205.21 175.35 205.524 175.531C205.843 175.715 205.989 175.93 205.961 176.175C205.942 176.415 205.769 176.63 205.441 176.819L204.035 177.631L200.571 175.631L201.028 175.367L202.344 176.127ZM204.049 177.111L204.998 176.563C205.196 176.449 205.305 176.319 205.323 176.175C205.337 176.029 205.252 175.902 205.067 175.795C204.882 175.689 204.665 175.641 204.416 175.651C204.162 175.659 203.935 175.721 203.737 175.835L202.788 176.383L204.049 177.111ZM206.7 171.997C207.208 171.703 207.813 171.557 208.515 171.557C209.218 171.551 209.825 171.697 210.338 171.993C210.846 172.286 211.1 172.638 211.1 173.049C211.091 173.454 210.834 173.802 210.331 174.093C209.869 174.359 209.317 174.504 208.675 174.528C208.028 174.544 207.455 174.435 206.957 174.201L206.236 174.616L207.746 175.488L207.289 175.752L203.825 173.753L204.282 173.489L205.793 174.361L206.513 173.945C206.107 173.651 205.92 173.322 205.952 172.957C205.984 172.586 206.234 172.266 206.7 171.997ZM208.522 174.169C209.049 174.169 209.504 174.058 209.887 173.837C210.271 173.615 210.462 173.353 210.462 173.049C210.453 172.739 210.259 172.475 209.88 172.257C209.497 172.035 209.042 171.925 208.515 171.925C207.984 171.922 207.527 172.031 207.144 172.253C206.76 172.474 206.571 172.738 206.576 173.045C206.576 173.349 206.767 173.611 207.151 173.833C207.529 174.051 207.987 174.163 208.522 174.169ZM212.934 172.134C213.04 172.195 213.094 172.268 213.094 172.354C213.094 172.439 213.04 172.512 212.934 172.574C212.828 172.635 212.701 172.666 212.553 172.666C212.405 172.666 212.278 172.635 212.172 172.574C212.066 172.512 212.013 172.439 212.013 172.354C212.013 172.268 212.066 172.195 212.172 172.134C212.278 172.072 212.405 172.042 212.553 172.042C212.701 172.042 212.828 172.072 212.934 172.134ZM213.526 168.792L214.843 168.032C215.24 167.803 215.725 167.688 216.298 167.688C216.87 167.688 217.355 167.803 217.753 168.032C218.154 168.264 218.355 168.545 218.355 168.876C218.355 169.201 218.154 169.48 217.753 169.712L215.951 170.752L211.101 167.952L213.942 166.312L214.399 166.576L212.044 167.936L213.526 168.792ZM215.979 170.208L217.295 169.448C217.563 169.293 217.695 169.105 217.69 168.884C217.681 168.66 217.54 168.469 217.268 168.312C217 168.157 216.672 168.077 216.284 168.072C215.9 168.064 215.572 168.139 215.3 168.296L213.984 169.056L215.979 170.208ZM216.696 166.322L219.176 164.89L222.64 166.89L222.183 167.154L219.162 165.41L217.596 166.314L219.141 167.206C219.719 167.54 220.005 167.833 220 168.086C220 168.337 219.795 168.565 219.384 168.77L218.954 168.522C219.25 168.384 219.381 168.233 219.349 168.07C219.317 167.908 219.095 167.708 218.684 167.47L216.696 166.322ZM221.662 163.359C222.179 163.061 222.775 162.927 223.449 162.959C224.128 162.983 224.715 163.138 225.209 163.423C225.232 163.437 225.299 163.481 225.41 163.555L222.369 165.311C222.761 165.485 223.186 165.559 223.643 165.535C224.101 165.511 224.516 165.391 224.89 165.175C225.417 164.871 225.593 164.543 225.417 164.191L226.054 164.095C226.151 164.327 226.138 164.562 226.013 164.799C225.888 165.031 225.659 165.243 225.327 165.435C224.782 165.75 224.168 165.907 223.484 165.907C222.8 165.907 222.195 165.755 221.669 165.451C221.147 165.15 220.884 164.803 220.879 164.411C220.87 164.017 221.131 163.666 221.662 163.359ZM222.105 163.615C221.745 163.823 221.549 164.059 221.516 164.323C221.489 164.585 221.625 164.829 221.925 165.055L224.509 163.563C224.089 163.379 223.664 163.297 223.235 163.315C222.791 163.337 222.415 163.437 222.105 163.615ZM229.352 163.111C228.83 163.413 228.223 163.563 227.53 163.563C226.828 163.558 226.223 163.409 225.715 163.115C225.202 162.819 224.946 162.471 224.946 162.071C224.941 161.669 225.2 161.317 225.722 161.016C226.064 160.818 226.454 160.689 226.893 160.628C227.327 160.564 227.745 160.576 228.147 160.664L227.987 161.004C227.687 160.937 227.373 160.929 227.045 160.98C226.717 161.025 226.424 161.122 226.165 161.272C225.782 161.493 225.592 161.757 225.597 162.063C225.597 162.367 225.789 162.63 226.172 162.851C226.551 163.07 227.008 163.182 227.544 163.187C228.07 163.187 228.525 163.077 228.909 162.855C229.163 162.709 229.331 162.542 229.415 162.355C229.502 162.166 229.498 161.977 229.401 161.788L230.003 161.696C230.137 161.938 230.147 162.186 230.031 162.439C229.916 162.693 229.689 162.917 229.352 163.111ZM230.618 160.205L234.277 160.173L233.667 160.525L230.265 160.561L231.935 161.525L231.478 161.788L228.013 159.789L228.471 159.525L230.002 160.409L230.12 158.573L230.743 158.213L230.618 160.205ZM236.294 158.088L235.691 155.356L236.079 155.132L239.543 157.132L239.086 157.396L236.418 155.856L237.021 158.588L236.633 158.812L233.169 156.812L233.626 156.548L236.294 158.088ZM243.94 154.69C243.418 154.991 242.81 155.142 242.117 155.142C241.415 155.137 240.81 154.987 240.302 154.694C239.79 154.398 239.533 154.05 239.533 153.65C239.529 153.248 239.787 152.896 240.309 152.594C240.651 152.397 241.041 152.268 241.48 152.206C241.914 152.142 242.332 152.154 242.734 152.242L242.575 152.582C242.275 152.516 241.96 152.508 241.632 152.558C241.305 152.604 241.011 152.701 240.753 152.85C240.369 153.072 240.18 153.336 240.184 153.642C240.184 153.946 240.376 154.209 240.76 154.43C241.138 154.649 241.596 154.761 242.131 154.766C242.658 154.766 243.113 154.655 243.496 154.434C243.75 154.287 243.919 154.121 244.002 153.934C244.09 153.745 244.085 153.556 243.988 153.366L244.591 153.274C244.725 153.517 244.734 153.765 244.619 154.018C244.503 154.271 244.277 154.495 243.94 154.69ZM242.117 151.646L245.027 149.966L245.471 150.222L244.244 150.93L247.265 152.674L246.808 152.938L243.787 151.194L242.561 151.902L242.117 151.646ZM248.709 150.921L248.106 148.189L248.494 147.965L251.959 149.965L251.501 150.229L248.834 148.689L249.437 151.421L249.049 151.645L245.585 149.645L246.042 149.381L248.709 150.921ZM249.822 147.199L252.302 145.767L255.766 147.767L255.309 148.031L252.288 146.287L250.722 147.191L252.267 148.083C252.845 148.416 253.131 148.709 253.127 148.963C253.127 149.213 252.921 149.441 252.51 149.646L252.08 149.398C252.376 149.26 252.508 149.109 252.475 148.947C252.443 148.784 252.221 148.584 251.81 148.347L249.822 147.199ZM255.044 145.704L255.994 145.156C256.312 144.972 256.686 144.873 257.116 144.86C257.541 144.844 257.91 144.926 258.224 145.108C258.543 145.292 258.689 145.506 258.661 145.751C258.643 145.991 258.469 146.206 258.141 146.395L256.735 147.207L253.271 145.208L253.728 144.944L255.044 145.704ZM256.749 146.687L257.698 146.139C257.897 146.025 258.005 145.895 258.024 145.751C258.037 145.605 257.952 145.478 257.767 145.372C257.582 145.265 257.365 145.217 257.116 145.228C256.862 145.236 256.636 145.297 256.437 145.412L255.488 145.959L256.749 146.687ZM152.948 214.067C153.465 213.928 153.925 213.975 154.327 214.207C154.613 214.372 154.749 214.563 154.736 214.779C154.726 214.992 154.551 215.198 154.209 215.395L152.525 216.367L149.061 214.367L150.606 213.475C150.939 213.283 151.283 213.183 151.639 213.175C151.999 213.164 152.318 213.239 152.595 213.399C152.941 213.599 153.059 213.822 152.948 214.067ZM151.05 213.731L149.962 214.359L151.015 214.967L152.103 214.339C152.505 214.107 152.525 213.887 152.165 213.679C152.003 213.586 151.826 213.544 151.632 213.555C151.438 213.56 151.244 213.619 151.05 213.731ZM152.539 215.847L153.766 215.139C153.969 215.022 154.075 214.904 154.084 214.787C154.098 214.667 154.017 214.556 153.842 214.455C153.676 214.359 153.491 214.316 153.288 214.327C153.089 214.335 152.888 214.398 152.685 214.515L151.458 215.223L152.539 215.847ZM156.863 211.783L160.521 211.751L159.911 212.103L156.509 212.139L158.179 213.103L157.722 213.367L154.257 211.367L154.715 211.103L156.246 211.987L156.364 210.151L156.987 209.791L156.863 211.783ZM160.994 208.262L160.315 207.87L160.772 207.606L164.237 209.606L163.779 209.87L163.1 209.478C163.29 209.955 163.077 210.371 162.463 210.726C161.969 211.011 161.371 211.154 160.669 211.154C159.971 211.151 159.368 211.003 158.86 210.71C158.352 210.417 158.096 210.069 158.091 209.666C158.091 209.261 158.338 208.915 158.833 208.63C159.447 208.275 160.167 208.153 160.994 208.262ZM160.689 210.782C161.216 210.782 161.671 210.671 162.054 210.45C162.438 210.229 162.629 209.966 162.629 209.662C162.62 209.353 162.426 209.089 162.047 208.87C161.664 208.649 161.209 208.538 160.682 208.538C160.151 208.535 159.694 208.645 159.311 208.866C158.927 209.087 158.738 209.351 158.742 209.658C158.742 209.962 158.934 210.225 159.318 210.446C159.696 210.665 160.154 210.777 160.689 210.782ZM165.898 206.567L169.251 206.711L168.697 207.031L165.614 206.883L167.283 207.847L166.826 208.111L165.156 207.147L165.413 208.927L164.858 209.247L164.609 207.311L161.464 207.207L162.018 206.887L164.9 206.999L163.362 206.111L163.819 205.847L165.357 206.735L165.163 205.071L165.718 204.751L165.898 206.567ZM169.319 202.672L172.34 204.416L172.825 204.136L174.197 204.928L173.739 205.192L172.811 204.656L169.984 206.288L170.913 206.824L170.455 207.088L169.084 206.296L169.506 206.052C169.428 205.735 169.109 205.415 168.55 205.092L166.839 204.104L169.319 202.672ZM170.06 205.732L171.883 204.68L169.305 203.192L167.739 204.096L169.007 204.828C169.543 205.137 169.894 205.439 170.06 205.732ZM176.291 202.143C176.282 202.548 176.026 202.896 175.522 203.187C175.009 203.483 174.404 203.632 173.707 203.635C173.005 203.635 172.397 203.487 171.885 203.191C171.372 202.895 171.118 202.546 171.123 202.143C171.123 201.738 171.379 201.387 171.892 201.091C172.4 200.798 173.005 200.651 173.707 200.651C174.409 200.646 175.016 200.791 175.529 201.087C176.037 201.38 176.291 201.732 176.291 202.143ZM173.714 203.263C174.24 203.263 174.695 203.152 175.079 202.931C175.462 202.71 175.654 202.447 175.654 202.143C175.645 201.834 175.451 201.57 175.072 201.351C174.688 201.13 174.233 201.019 173.707 201.019C173.176 201.016 172.718 201.126 172.335 201.347C171.952 201.568 171.762 201.832 171.767 202.139C171.767 202.443 171.959 202.706 172.342 202.927C172.721 203.146 173.178 203.258 173.714 203.263ZM177.431 197.989L177.957 197.686L181.421 199.685L180.964 199.949L178.2 198.353L178.955 200.189L178.899 200.221L175.719 199.785L178.484 201.381L178.026 201.645L174.562 199.645L175.089 199.341L178.158 199.761L177.431 197.989ZM187.864 195.454L184.843 193.71L185.3 193.446L188.764 195.446L184.122 198.126L180.658 196.126L181.116 195.862L184.136 197.606L185.771 196.662L182.751 194.918L183.208 194.654L186.229 196.398L187.864 195.454ZM185.852 193.128L188.762 191.448L189.205 191.704L187.979 192.412L190.999 194.156L190.542 194.42L187.521 192.676L186.295 193.384L185.852 193.128ZM191.092 190.006C191.587 189.721 192.182 189.58 192.88 189.583C193.582 189.583 194.187 189.729 194.695 190.022C195.203 190.316 195.457 190.665 195.457 191.07C195.462 191.473 195.217 191.817 194.723 192.102C194.109 192.457 193.388 192.58 192.561 192.47L194.626 193.662L194.169 193.926L189.319 191.126L189.776 190.862L190.455 191.254C190.266 190.777 190.478 190.361 191.092 190.006ZM192.88 192.198C193.406 192.198 193.861 192.088 194.245 191.866C194.628 191.645 194.82 191.382 194.82 191.078C194.811 190.769 194.617 190.505 194.238 190.286C193.855 190.065 193.4 189.954 192.873 189.954C192.342 189.952 191.885 190.061 191.501 190.282C191.118 190.504 190.928 190.768 190.933 191.074C190.933 191.378 191.125 191.641 191.508 191.862C191.887 192.081 192.344 192.193 192.88 192.198ZM196.848 189.86L196.245 187.128L196.633 186.904L200.097 188.904L199.64 189.168L196.973 187.628L197.576 190.359L197.188 190.583L193.723 188.584L194.181 188.32L196.848 189.86ZM200.829 186.409L203.974 186.665L203.427 186.981L200.919 186.781L201.265 188.229L200.718 188.545L200.282 186.725L197.344 186.493L197.891 186.177L200.192 186.361L199.873 185.034L200.42 184.718L200.829 186.409ZM202.406 183.475C202.923 183.177 203.519 183.043 204.193 183.075C204.872 183.099 205.459 183.254 205.953 183.539C205.976 183.553 206.043 183.597 206.154 183.671L203.113 185.427C203.505 185.6 203.93 185.675 204.387 185.651C204.845 185.627 205.26 185.507 205.634 185.291C206.161 184.987 206.337 184.659 206.161 184.307L206.798 184.211C206.895 184.443 206.882 184.678 206.757 184.915C206.632 185.147 206.404 185.359 206.071 185.551C205.526 185.866 204.912 186.023 204.228 186.023C203.544 186.023 202.939 185.871 202.413 185.567C201.891 185.266 201.628 184.919 201.623 184.527C201.614 184.133 201.875 183.782 202.406 183.475ZM202.849 183.731C202.489 183.939 202.293 184.175 202.26 184.439C202.233 184.7 202.369 184.944 202.669 185.171L205.253 183.679C204.833 183.495 204.408 183.413 203.979 183.431C203.535 183.453 203.159 183.553 202.849 183.731ZM208.502 183.691C208.609 183.753 208.662 183.826 208.662 183.911C208.662 183.997 208.609 184.07 208.502 184.131C208.396 184.193 208.269 184.223 208.121 184.223C207.974 184.223 207.847 184.193 207.74 184.131C207.634 184.07 207.581 183.997 207.581 183.911C207.581 183.826 207.634 183.753 207.74 183.691C207.847 183.63 207.974 183.599 208.121 183.599C208.269 183.599 208.396 183.63 208.502 183.691Z" fill="white"/>
<defs>
<filter id="filter0_f_161_619" x="87.7555" y="118.944" width="45.4469" height="27.0425" filterUnits="userSpaceOnUse" color-interpolation-filters="sRGB">
<feFlood flood-opacity="0" result="BackgroundImageFix"/>
<feBlend mode="normal" in="SourceGraphic" in2="BackgroundImageFix" result="shape"/>
<feGaussianBlur stdDeviation="2" result="effect1_foregroundBlur_161_619"/>
</filter>
<filter id="filter1_f_161_619" x="82.3613" y="-49.9978" width="114.43" height="212.729" filterUnits="userSpaceOnUse" color-interpolation-filters="sRGB">
<feFlood flood-opacity="0" result="BackgroundImageFix"/>
<feBlend mode="normal" in="SourceGraphic" in2="BackgroundImageFix" result="shape"/>
<feGaussianBlur stdDeviation="12" result="effect1_foregroundBlur_161_619"/>
</filter>
<filter id="filter2_f_161_619" x="95.0847" y="-39.8613" width="88.7844" height="192.553" filterUnits="userSpaceOnUse" color-interpolation-filters="sRGB">
<feFlood flood-opacity="0" result="BackgroundImageFix"/>
<feBlend mode="normal" in="SourceGraphic" in2="BackgroundImageFix" result="shape"/>
<feGaussianBlur stdDeviation="7" result="effect1_foregroundBlur_161_619"/>
</filter>
<linearGradient id="paint0_linear_161_619" x1="206.161" y1="-69.8089" x2="70.2172" y2="108.183" gradientUnits="userSpaceOnUse">
<stop stop-color="#4F9279"/>
<stop offset="1" stop-color="#182C24"/>
</linearGradient>
<linearGradient id="paint1_linear_161_619" x1="182" y1="2.90706e-05" x2="490.817" y2="132.883" gradientUnits="userSpaceOnUse">
<stop stop-color="#767676"/>
<stop offset="1" stop-color="#4B4B4B"/>
</linearGradient>
<linearGradient id="paint2_linear_161_619" x1="206.161" y1="-69.8089" x2="70.2172" y2="108.183" gradientUnits="userSpaceOnUse">
<stop stop-color="#4F9279"/>
<stop offset="1" stop-color="#182C24"/>
</linearGradient>
<radialGradient id="paint3_radial_161_619" cx="0" cy="0" r="1" gradientUnits="userSpaceOnUse" gradientTransform="translate(14.8529 14.8529) rotate(95.5085) scale(16.2421 14.6622)">
<stop stop-color="#4F9279"/>
<stop offset="1" stop-color="#131313" stop-opacity="0"/>
</radialGradient>
<linearGradient id="paint4_linear_161_619" x1="16.651" y1="163.801" x2="21.9002" y2="14.4243" gradientUnits="userSpaceOnUse">
<stop stop-color="#4F9279"/>
<stop offset="1" stop-color="#182C24"/>
</linearGradient>
<linearGradient id="paint5_linear_161_619" x1="6.02256" y1="0" x2="6.02256" y2="175.003" gradientUnits="userSpaceOnUse">
<stop stop-color="#292929"/>
<stop offset="1" stop-color="white"/>
</linearGradient>
<linearGradient id="paint6_linear_161_619" x1="163.226" y1="-13.1186" x2="66.0039" y2="46.2275" gradientUnits="userSpaceOnUse">
<stop stop-color="#4F9279"/>
<stop offset="1" stop-color="#182C24"/>
</linearGradient>
</defs>
</svg>
