<svg width="176" height="176" viewBox="0 0 176 176" fill="none" xmlns="http://www.w3.org/2000/svg">
<path d="M44 146.667H80.6666V161.333H44C35.86 161.333 29.3333 154.807 29.3333 146.667V29.3334C29.3333 21.2667 35.86 14.6667 44 14.6667H132C140.14 14.6667 146.667 21.2667 146.667 29.3334V75.5334C145.053 76.4134 143.513 77.44 142.193 78.76L132 88.9534V29.3334H95.3333V88L77 71.5L58.6666 88V29.3334H44V146.667ZM167.567 98.78L157.887 89.1C156.42 87.6334 154 87.6334 152.607 89.1L145.42 96.2867L160.38 111.247L167.567 104.06C169.033 102.667 169.033 100.247 167.567 98.78ZM95.3333 146.373V161.333H110.293L155.247 116.453L140.287 101.42L95.3333 146.373Z" fill="url(#paint0_linear_164_633)"/>
<defs>
<linearGradient id="paint0_linear_164_633" x1="99" y1="14.6667" x2="99" y2="161.333" gradientUnits="userSpaceOnUse">
<stop stop-color="#4F9279"/>
<stop offset="1" stop-color="#182C24"/>
</linearGradient>
</defs>
</svg>
