<svg width="190" height="190" viewBox="0 0 190 190" fill="none" xmlns="http://www.w3.org/2000/svg">
<path d="M158.333 47.5C162.925 47.5 166.646 49.0833 169.575 52.1708C172.583 55.4166 174.167 58.9791 174.167 63.3333V150.417C174.167 154.771 172.583 158.333 169.575 161.579C166.646 164.667 162.925 166.25 158.333 166.25H31.6667C27.075 166.25 23.3542 164.667 20.425 161.579C17.4167 158.333 15.8334 154.771 15.8334 150.417V63.3333C15.8334 58.9791 17.4167 55.4166 20.425 52.1708C23.3542 49.0833 27.075 47.5 31.6667 47.5H63.3334V31.6666C63.3334 27.075 64.9167 23.3541 67.925 20.425C70.8542 17.4166 74.575 15.8333 79.1667 15.8333H110.833C115.425 15.8333 119.146 17.4166 122.075 20.425C125.083 23.3541 126.667 27.075 126.667 31.6666V47.5H158.333ZM31.6667 63.3333V150.417H158.333V63.3333H31.6667ZM110.833 47.5V31.6666H79.1667V47.5H110.833Z" fill="url(#paint0_linear_164_635)"/>
<defs>
<linearGradient id="paint0_linear_164_635" x1="95" y1="15.8333" x2="95" y2="166.25" gradientUnits="userSpaceOnUse">
<stop stop-color="#4F9279"/>
<stop offset="1" stop-color="#182C24"/>
</linearGradient>
</defs>
</svg>
