<svg width="126" height="77" viewBox="0 0 126 77" fill="none" xmlns="http://www.w3.org/2000/svg">
<path d="M29.5342 17.7181C30.0263 18.4856 30.1934 19.4171 29.9986 20.3077C29.8039 21.1984 29.2634 21.9752 28.4959 22.4673C27.7285 22.9594 26.797 23.1265 25.9063 22.9318C25.0157 22.7371 24.2388 22.1965 23.7467 21.4291L16.9594 10.8438C16.4673 10.0764 16.3002 9.14487 16.4949 8.25422C16.6896 7.36357 17.2302 6.58675 17.9976 6.09464C18.7651 5.60254 19.6966 5.43547 20.5873 5.63017C21.4779 5.82488 22.2547 6.36543 22.7468 7.13289L29.5342 17.7181ZM3.62059 34.62C2.74353 34.4122 1.98316 33.8683 1.50325 33.1053C1.02334 32.3424 0.862294 31.4214 1.0548 30.5409C1.24729 29.6604 1.77793 28.8907 2.53243 28.3976C3.28692 27.9045 4.20491 27.7274 5.08865 27.9046L17.3701 30.5895C17.8176 30.6792 18.2428 30.8572 18.6208 31.113C18.9989 31.3688 19.3222 31.6973 19.5719 32.0794C19.8216 32.4615 19.9927 32.8895 20.0752 33.3384C20.1578 33.7873 20.1501 34.2482 20.0526 34.6941C19.9551 35.14 19.7698 35.562 19.5075 35.9356C19.2451 36.3091 18.911 36.6266 18.5247 36.8697C18.1383 37.1127 17.7074 37.2764 17.2571 37.3511C16.8068 37.4258 16.3462 37.4101 15.902 37.3049L3.62059 34.62ZM47.2352 17.2138C47.1455 17.6613 46.9675 18.0865 46.7117 18.4645C46.4559 18.8426 46.1274 19.1659 45.7453 19.4156C45.3632 19.6653 44.9352 19.8364 44.4863 19.9189C44.0374 20.0014 43.5765 19.9937 43.1306 19.8963C42.6847 19.7988 42.2627 19.6135 41.8891 19.3511C41.5156 19.0888 41.198 18.7547 40.955 18.3683C40.712 17.982 40.5483 17.5511 40.4736 17.1008C40.3989 16.6505 40.4146 16.1898 40.5198 15.7457L43.2047 3.46425C43.4125 2.58719 43.9564 1.82683 44.7194 1.34692C45.4823 0.867011 46.4032 0.705964 47.2838 0.898461C48.1643 1.09096 48.934 1.6216 49.4271 2.3761C49.9202 3.1306 50.0972 4.04858 49.9201 4.93233L47.2352 17.2138ZM60.1066 29.3778C59.3391 29.8699 58.4076 30.037 57.517 29.8423C56.6263 29.6476 55.8495 29.1071 55.3574 28.3396C54.8653 27.5721 54.6982 26.6406 54.8929 25.75C55.0876 24.8593 55.6282 24.0825 56.3956 23.5904L66.9808 16.8031C67.7483 16.311 68.6798 16.1439 69.5705 16.3386C70.4611 16.5333 71.2379 17.0738 71.73 17.8413C72.2221 18.6088 72.3892 19.5403 72.1945 20.4309C71.9998 21.3216 71.4593 22.0984 70.6918 22.5905L60.1066 29.3778ZM11.0002 60.8653C10.2327 61.3574 9.30119 61.5245 8.41055 61.3298C7.51991 61.1351 6.74308 60.5945 6.25098 59.8271C5.75888 59.0596 5.5918 58.1281 5.78651 57.2374C5.98121 56.3468 6.52176 55.57 7.28922 55.0779L17.8744 48.2905C18.6419 47.7984 19.5734 47.6313 20.4641 47.826C21.3547 48.0208 22.1315 48.5613 22.6236 49.3288C23.1157 50.0962 23.2828 51.0277 23.0881 51.9184C22.8934 52.809 22.3529 53.5859 21.5854 54.078L11.0002 60.8653ZM34.7763 74.2041C34.6866 74.6516 34.5086 75.0768 34.2528 75.4549C33.997 75.8329 33.6685 76.1562 33.2864 76.4059C32.9043 76.6556 32.4763 76.8267 32.0274 76.9093C31.5785 76.9918 31.1176 76.9841 30.6717 76.8866C30.2258 76.7891 29.8038 76.6038 29.4302 76.3415C29.0567 76.0792 28.7392 75.7451 28.4961 75.3587C28.2531 74.9723 28.0894 74.5414 28.0147 74.0911C27.94 73.6408 27.9557 73.1802 28.0609 72.736L30.7458 60.4546C30.8356 60.0071 31.0135 59.5819 31.2693 59.2038C31.5251 58.8258 31.8536 58.5025 32.2357 58.2528C32.6178 58.0031 33.0458 57.832 33.4947 57.7495C33.9436 57.6669 34.4045 57.6746 34.8504 57.7721C35.2963 57.8696 35.7184 58.0549 36.0919 58.3172C36.4654 58.5796 36.783 58.9137 37.026 59.3C37.269 59.6864 37.4327 60.1173 37.5074 60.5676C37.5821 61.0179 37.5664 61.4785 37.4612 61.9227L34.7763 74.2041ZM61.0216 66.8245C61.5137 67.592 61.6808 68.5235 61.4861 69.4141C61.2914 70.3048 60.7508 71.0816 59.9834 71.5737C59.2159 72.0658 58.2844 72.2329 57.3938 72.0382C56.5031 71.8435 55.7263 71.3029 55.2342 70.5355L48.4469 59.9502C47.9548 59.1828 47.7877 58.2513 47.9824 57.3606C48.1771 56.47 48.7176 55.6932 49.4851 55.2011C50.2526 54.709 51.1841 54.5419 52.0747 54.7366C52.9654 54.9313 53.7422 55.4718 54.2343 56.2393L61.0216 66.8245ZM31.377 44.2061C30.4885 44.0104 29.7138 43.4704 29.2227 42.7045C28.7316 41.9386 28.5641 41.0093 28.757 40.1201L30.2272 33.3953C30.422 32.5048 30.9625 31.7282 31.7298 31.2362C32.4971 30.7442 33.4284 30.5771 34.3189 30.7716L46.604 33.4623C47.4945 33.6571 48.2711 34.1976 48.7631 34.9649C49.2551 35.7322 49.4222 36.6635 49.2277 37.554L47.7575 44.2789C47.5627 45.1693 47.0222 45.9459 46.2549 46.4379C45.4876 46.93 44.5563 47.0971 43.6658 46.9025L31.3844 44.2176L31.377 44.2061ZM59.8722 50.4355C58.9836 50.2398 58.2089 49.6998 57.7178 48.9339C57.2267 48.1681 57.0593 47.2387 57.2522 46.3496L58.7224 39.6247C58.9172 38.7343 59.4577 37.9577 60.225 37.4656C60.9923 36.9736 61.9236 36.8065 62.8141 37.0011L122.591 50.0742C123.482 50.269 124.258 50.8094 124.75 51.5768C125.242 52.3441 125.409 53.2754 125.215 54.1659L123.745 60.8907C123.55 61.7812 123.009 62.5578 122.242 63.0498C121.475 63.5418 120.543 63.7089 119.653 63.5144L59.8722 50.4355Z" fill="url(#paint0_linear_1147_14)"/>
<defs>
<linearGradient id="paint0_linear_1147_14" x1="29.1193" y1="-1.03668" x2="85.3715" y2="86.6916" gradientUnits="userSpaceOnUse">
<stop stop-color="#4F9279"/>
<stop offset="1" stop-color="#182C24"/>
</linearGradient>
</defs>
</svg>
