<svg width="232" height="232" viewBox="0 0 232 232" fill="none" xmlns="http://www.w3.org/2000/svg">
<path d="M137.75 38.7443C137.75 40.6671 138.514 42.5111 139.873 43.8708C141.233 45.2304 143.077 45.9943 145 45.9943C146.923 45.9943 148.767 45.2304 150.126 43.8708C151.486 42.5111 152.25 40.6671 152.25 38.7443V12.2238C152.25 10.3009 151.486 8.45687 150.126 7.09723C148.767 5.73759 146.923 4.97375 145 4.97375C143.077 4.97375 141.233 5.73759 139.873 7.09723C138.514 8.45687 137.75 10.3009 137.75 12.2238V38.7443ZM203 39.2518C204.32 37.8844 205.051 36.053 205.035 34.1521C205.018 32.2512 204.256 30.4328 202.911 29.0886C201.567 27.7444 199.749 26.9819 197.848 26.9654C195.947 26.9489 194.116 27.6796 192.748 29.0003L174 47.7488C173.307 48.4175 172.755 49.2175 172.375 50.1021C171.995 50.9866 171.795 51.9379 171.787 52.9006C171.778 53.8632 171.962 54.8179 172.326 55.7089C172.691 56.5999 173.229 57.4094 173.91 58.0901C174.591 58.7708 175.4 59.3092 176.291 59.6737C177.182 60.0382 178.137 60.2217 179.099 60.2133C180.062 60.205 181.013 60.005 181.898 59.625C182.783 59.245 183.583 58.6927 184.251 58.0003L203 39.2518ZM105.748 58.0003C106.417 58.6927 107.217 59.245 108.102 59.625C108.986 60.005 109.938 60.205 110.9 60.2133C111.863 60.2217 112.818 60.0382 113.709 59.6737C114.6 59.3092 115.409 58.7708 116.09 58.0901C116.77 57.4094 117.309 56.5999 117.673 55.7089C118.038 54.8179 118.221 53.8632 118.213 52.9006C118.205 51.9379 118.005 50.9866 117.625 50.1021C117.245 49.2175 116.692 48.4175 116 47.7488L97.2513 29.0003C95.884 27.6796 94.0526 26.9489 92.1517 26.9654C90.2508 26.9819 88.4324 27.7444 87.0882 29.0886C85.7439 30.4328 84.9815 32.2512 84.965 34.1521C84.9484 36.053 85.6792 37.8844 86.9998 39.2518L105.748 58.0003ZM96.7438 94.2503C98.6667 94.2503 100.511 93.4864 101.87 92.1268C103.23 90.7671 103.994 88.9231 103.994 87.0003C103.994 85.0774 103.23 83.2334 101.87 81.8737C100.511 80.5141 98.6667 79.7503 96.7438 79.7503H70.2233C68.3005 79.7503 66.4565 80.5141 65.0968 81.8737C63.7372 83.2334 62.9733 85.0774 62.9733 87.0003C62.9733 88.9231 63.7372 90.7671 65.0968 92.1268C66.4565 93.4864 68.3005 94.2503 70.2233 94.2503H96.7438ZM219.776 94.2503C221.699 94.2503 223.543 93.4864 224.903 92.1268C226.262 90.7671 227.026 88.9231 227.026 87.0003C227.026 85.0774 226.262 83.2334 224.903 81.8737C223.543 80.5141 221.699 79.7503 219.776 79.7503H193.256C191.333 79.7503 189.489 80.5141 188.129 81.8737C186.77 83.2334 186.006 85.0774 186.006 87.0003C186.006 88.9231 186.77 90.7671 188.129 92.1268C189.489 93.4864 191.333 94.2503 193.256 94.2503H219.776ZM192.748 145C193.417 145.693 194.217 146.245 195.102 146.625C195.986 147.005 196.938 147.205 197.9 147.213C198.863 147.222 199.817 147.038 200.708 146.674C201.599 146.309 202.409 145.771 203.09 145.09C203.77 144.409 204.309 143.6 204.673 142.709C205.038 141.818 205.221 140.863 205.213 139.901C205.205 138.938 205.005 137.987 204.625 137.102C204.245 136.218 203.692 135.418 203 134.749L184.251 116C183.583 115.308 182.783 114.755 181.898 114.376C181.013 113.996 180.062 113.796 179.099 113.787C178.137 113.779 177.182 113.962 176.291 114.327C175.4 114.691 174.591 115.23 173.91 115.91C173.229 116.591 172.691 117.401 172.326 118.292C171.962 119.183 171.778 120.137 171.787 121.1C171.795 122.063 171.995 123.014 172.375 123.898C172.755 124.783 173.307 125.583 174 126.252L192.748 145ZM137.75 161.777C137.75 163.7 138.514 165.544 139.873 166.903C141.233 168.263 143.077 169.027 145 169.027C146.923 169.027 148.767 168.263 150.126 166.903C151.486 165.544 152.25 163.7 152.25 161.777V135.256C152.25 133.333 151.486 131.489 150.126 130.13C148.767 128.77 146.923 128.006 145 128.006C143.077 128.006 141.233 128.77 139.873 130.13C138.514 131.489 137.75 133.333 137.75 135.256V161.777ZM164.633 87.8703C165.988 86.5113 166.748 84.6706 166.748 82.7518C166.748 80.8329 165.988 78.9922 164.633 77.6333L154.367 67.3673C153.007 66.0081 151.164 65.2446 149.241 65.2446C147.319 65.2446 145.475 66.0081 144.115 67.3673L125.367 86.1303C124.008 87.4898 123.244 89.3336 123.244 91.256C123.244 93.1784 124.008 95.0222 125.367 96.3818L135.633 106.648C136.992 108.007 138.836 108.77 140.759 108.77C142.681 108.77 144.525 108.007 145.884 106.648L164.633 87.8993V87.8703ZM121.133 131.37C122.488 130.011 123.248 128.171 123.248 126.252C123.248 124.333 122.488 122.492 121.133 121.133L110.867 110.867C109.507 109.508 107.664 108.745 105.741 108.745C103.819 108.745 101.975 109.508 100.615 110.867L9.36684 202.13C8.00768 203.49 7.24414 205.334 7.24414 207.256C7.24414 209.178 8.00768 211.022 9.36684 212.382L19.6328 222.648C20.9924 224.007 22.8362 224.77 24.7586 224.77C26.681 224.77 28.5248 224.007 29.8843 222.648L121.133 131.37Z" fill="url(#paint0_linear_164_637)"/>
<defs>
<linearGradient id="paint0_linear_164_637" x1="117.135" y1="4.97375" x2="117.135" y2="224.77" gradientUnits="userSpaceOnUse">
<stop stop-color="#4F9279"/>
<stop offset="1" stop-color="#182C24"/>
</linearGradient>
</defs>
</svg>
