<svg width="199" height="217" viewBox="0 0 199 217" fill="none" xmlns="http://www.w3.org/2000/svg">
<path d="M34.824 43H34.08V38.824L31.2 43H30.6V37.4H31.344V41.584L34.224 37.4H34.824V43ZM39.2059 39H39.9499V43H39.2699V40.096L37.9979 42.144H37.9099L36.6379 40.096V43H35.9499V39H36.6939L37.9499 41.024L39.2059 39ZM42.3004 39H44.0044V43H43.3164V41.56H42.7324L41.6124 43H40.7644L41.9324 41.52C41.6284 41.4453 41.383 41.296 41.1964 41.072C41.015 40.848 40.9244 40.5867 40.9244 40.288C40.9244 39.92 41.055 39.6133 41.3164 39.368C41.5777 39.1227 41.9057 39 42.3004 39ZM42.3244 40.936H43.3164V39.648H42.3244C42.1217 39.648 41.951 39.7093 41.8124 39.832C41.679 39.9493 41.6124 40.104 41.6124 40.296C41.6124 40.4827 41.679 40.6373 41.8124 40.76C41.951 40.8773 42.1217 40.936 42.3244 40.936Z" fill="white"/>
<path d="M39.12 22.68V15.6H40.5V24H30.84V15.6H32.22V22.68H34.98V15.6H36.36V22.68H39.12ZM46.8518 18.852V18H48.1478V24H46.8518V23.136C46.3638 23.816 45.6638 24.156 44.7518 24.156C43.9278 24.156 43.2238 23.852 42.6398 23.244C42.0558 22.636 41.7638 21.888 41.7638 21C41.7638 20.112 42.0558 19.364 42.6398 18.756C43.2238 18.148 43.9278 17.844 44.7518 17.844C45.6638 17.844 46.3638 18.18 46.8518 18.852ZM43.5998 22.38C43.9598 22.74 44.4118 22.92 44.9558 22.92C45.4998 22.92 45.9518 22.74 46.3118 22.38C46.6718 22.012 46.8518 21.552 46.8518 21C46.8518 20.448 46.6718 19.992 46.3118 19.632C45.9518 19.264 45.4998 19.08 44.9558 19.08C44.4118 19.08 43.9598 19.264 43.5998 19.632C43.2398 19.992 43.0598 20.448 43.0598 21C43.0598 21.544 43.2398 22.004 43.5998 22.38ZM52.4423 24.156C51.5303 24.156 50.7783 23.86 50.1863 23.268C49.6103 22.668 49.3223 21.904 49.3223 20.976C49.3223 19.968 49.4743 19.184 49.7783 18.624C50.0743 18.072 50.6903 17.564 51.6263 17.1C51.6583 17.084 51.7103 17.06 51.7823 17.028C51.8623 16.988 51.9463 16.948 52.0343 16.908C52.1223 16.868 52.2103 16.828 52.2983 16.788C52.6343 16.636 52.8423 16.54 52.9223 16.5C52.9703 16.476 53.1103 16.388 53.3423 16.236C53.6223 16.036 53.8103 15.752 53.9063 15.384L54.9623 15.996C54.9223 16.436 54.6463 16.84 54.1343 17.208C54.0463 17.288 53.8823 17.384 53.6423 17.496L53.1263 17.736L52.5263 17.988C52.0063 18.196 51.6223 18.408 51.3743 18.624C51.1263 18.84 50.9543 19.116 50.8583 19.452C51.3383 18.908 51.9903 18.636 52.8143 18.636C53.5183 18.636 54.1303 18.888 54.6503 19.392C55.1783 19.896 55.4423 20.548 55.4423 21.348C55.4423 22.164 55.1623 22.836 54.6023 23.364C54.0503 23.892 53.3303 24.156 52.4423 24.156ZM52.4303 22.944C52.9343 22.944 53.3463 22.796 53.6663 22.5C53.9863 22.196 54.1463 21.812 54.1463 21.348C54.1463 20.876 53.9863 20.488 53.6663 20.184C53.3543 19.88 52.9463 19.728 52.4423 19.728C51.9943 19.728 51.5903 19.872 51.2303 20.16C50.8703 20.432 50.6903 20.808 50.6903 21.288C50.6903 21.768 50.8583 22.164 51.1943 22.476C51.5303 22.788 51.9423 22.944 52.4303 22.944ZM56.7592 18H61.3552V24H60.0592V19.248H58.0552V21.48C58.0552 22.416 57.8512 23.088 57.4432 23.496C57.0352 23.904 56.4392 24.072 55.6552 24V22.788C56.0232 22.852 56.2992 22.776 56.4832 22.56C56.6672 22.336 56.7592 21.956 56.7592 21.42V18ZM67.9414 23.244C67.3334 23.852 66.5854 24.156 65.6974 24.156C64.8094 24.156 64.0614 23.852 63.4534 23.244C62.8374 22.628 62.5294 21.88 62.5294 21C62.5294 20.12 62.8374 19.372 63.4534 18.756C64.0614 18.148 64.8094 17.844 65.6974 17.844C66.5854 17.844 67.3334 18.148 67.9414 18.756C68.5574 19.372 68.8654 20.12 68.8654 21C68.8654 21.88 68.5574 22.628 67.9414 23.244ZM63.8254 21C63.8254 21.544 64.0054 21.996 64.3654 22.356C64.7254 22.716 65.1694 22.896 65.6974 22.896C66.2254 22.896 66.6694 22.716 67.0294 22.356C67.3894 21.996 67.5694 21.544 67.5694 21C67.5694 20.456 67.3894 20.004 67.0294 19.644C66.6694 19.284 66.2254 19.104 65.6974 19.104C65.1694 19.104 64.7254 19.284 64.3654 19.644C64.0054 20.004 63.8254 20.456 63.8254 21ZM74.0813 20.388V18H75.3773V24H74.0813V21.612H71.3333V24H70.0373V18H71.3333V20.388H74.0813Z" fill="white"/>
<path d="M34.064 77.776V75.4H34.8V81H34.064V78.48H31.344V81H30.6V75.4H31.344V77.776H34.064ZM39.2384 77.688V77H39.9344V81H39.2384V80.312C38.8971 80.84 38.3931 81.104 37.7264 81.104C37.1611 81.104 36.6838 80.9013 36.2944 80.496C35.8998 80.0853 35.7024 79.5867 35.7024 79C35.7024 78.4187 35.8998 77.9227 36.2944 77.512C36.6891 77.1013 37.1664 76.896 37.7264 76.896C38.3931 76.896 38.8971 77.16 39.2384 77.688ZM37.8144 80.432C38.2198 80.432 38.5584 80.296 38.8304 80.024C39.1024 79.7413 39.2384 79.4 39.2384 79C39.2384 78.5947 39.1024 78.256 38.8304 77.984C38.5584 77.7067 38.2198 77.568 37.8144 77.568C37.4144 77.568 37.0784 77.7067 36.8064 77.984C36.5344 78.256 36.3984 78.5947 36.3984 79C36.3984 79.4 36.5344 79.7413 36.8064 80.024C37.0784 80.296 37.4144 80.432 37.8144 80.432ZM43.1489 78.952C43.5916 79.1387 43.8129 79.456 43.8129 79.904C43.8129 80.2507 43.6769 80.5387 43.4049 80.768C43.1329 80.992 42.7569 81.104 42.2769 81.104C41.4769 81.104 40.9409 80.784 40.6689 80.144L41.2529 79.8C41.4023 80.2373 41.7463 80.456 42.2849 80.456C42.5463 80.456 42.7516 80.4 42.9009 80.288C43.0503 80.176 43.1249 80.0267 43.1249 79.84C43.1249 79.68 43.0636 79.5493 42.9409 79.448C42.8236 79.3467 42.6636 79.296 42.4609 79.296H41.8769V78.664H42.3089C42.5116 78.664 42.6689 78.616 42.7809 78.52C42.8929 78.4187 42.9489 78.2827 42.9489 78.112C42.9489 77.936 42.8823 77.7973 42.7489 77.696C42.6156 77.5893 42.4369 77.536 42.2129 77.536C41.7649 77.536 41.4609 77.7253 41.3009 78.104L40.7329 77.776C41.0156 77.1893 41.5089 76.896 42.2129 76.896C42.6396 76.896 42.9809 77.008 43.2369 77.232C43.4983 77.4507 43.6289 77.7253 43.6289 78.056C43.6289 78.4613 43.4689 78.76 43.1489 78.952ZM47.2311 78.944C47.6417 79.1147 47.8471 79.424 47.8471 79.872C47.8471 80.2133 47.7351 80.488 47.5111 80.696C47.2871 80.8987 46.9724 81 46.5671 81H44.5671V77H46.4071C46.8017 77 47.1084 77.0987 47.3271 77.296C47.5511 77.4933 47.6631 77.7573 47.6631 78.088C47.6631 78.472 47.5191 78.7573 47.2311 78.944ZM46.3751 77.624H45.2471V78.672H46.3751C46.7804 78.672 46.9831 78.4933 46.9831 78.136C46.9831 77.7947 46.7804 77.624 46.3751 77.624ZM45.2471 80.368H46.5271C46.7297 80.368 46.8844 80.32 46.9911 80.224C47.1031 80.128 47.1591 79.992 47.1591 79.816C47.1591 79.6507 47.1031 79.5227 46.9911 79.432C46.8844 79.336 46.7297 79.288 46.5271 79.288H45.2471V80.368ZM51.9103 77.688V77H52.6063V81H51.9103V80.312C51.569 80.84 51.065 81.104 50.3983 81.104C49.833 81.104 49.3556 80.9013 48.9663 80.496C48.5716 80.0853 48.3743 79.5867 48.3743 79C48.3743 78.4187 48.5716 77.9227 48.9663 77.512C49.361 77.1013 49.8383 76.896 50.3983 76.896C51.065 76.896 51.569 77.16 51.9103 77.688ZM50.4863 80.432C50.8916 80.432 51.2303 80.296 51.5023 80.024C51.7743 79.7413 51.9103 79.4 51.9103 79C51.9103 78.5947 51.7743 78.256 51.5023 77.984C51.2303 77.7067 50.8916 77.568 50.4863 77.568C50.0863 77.568 49.7503 77.7067 49.4783 77.984C49.2063 78.256 49.0703 78.5947 49.0703 79C49.0703 79.4 49.2063 79.7413 49.4783 80.024C49.7503 80.296 50.0863 80.432 50.4863 80.432ZM56.4288 78.664V77H57.1248V81H56.4288V79.328H54.3568V81H53.6608V77H54.3568V78.664H56.4288ZM58.8723 79.808L61.0883 77H61.6483V81H60.9603V78.192L58.7443 81H58.1842V77H58.8723V79.808ZM66.5477 79.32H63.1957C63.265 79.672 63.4277 79.9493 63.6837 80.152C63.9397 80.3493 64.2597 80.448 64.6437 80.448C65.1717 80.448 65.5557 80.2533 65.7957 79.864L66.3877 80.2C65.993 80.8027 65.4064 81.104 64.6277 81.104C63.9984 81.104 63.481 80.9067 63.0757 80.512C62.681 80.1067 62.4837 79.6027 62.4837 79C62.4837 78.392 62.6784 77.8907 63.0677 77.496C63.457 77.096 63.961 76.896 64.5797 76.896C65.1664 76.896 65.6437 77.104 66.0117 77.52C66.385 77.9253 66.5717 78.4213 66.5717 79.008C66.5717 79.1093 66.5637 79.2133 66.5477 79.32ZM64.5797 77.552C64.2117 77.552 63.9024 77.656 63.6517 77.864C63.4064 78.072 63.2544 78.3547 63.1957 78.712H65.8677C65.809 78.344 65.6624 78.0587 65.4277 77.856C65.193 77.6533 64.9104 77.552 64.5797 77.552Z" fill="white"/>
<path d="M32.12 113.12L34.672 116H33.76L31.344 113.312V116H30.6V110.4H31.344V112.928L33.68 110.4H34.592L32.12 113.12ZM38.279 115.496C37.8737 115.901 37.375 116.104 36.783 116.104C36.191 116.104 35.6923 115.901 35.287 115.496C34.8817 115.091 34.679 114.592 34.679 114C34.679 113.408 34.8817 112.909 35.287 112.504C35.6923 112.099 36.191 111.896 36.783 111.896C37.375 111.896 37.8737 112.099 38.279 112.504C38.6897 112.915 38.895 113.413 38.895 114C38.895 114.587 38.6897 115.085 38.279 115.496ZM36.783 115.424C37.183 115.424 37.519 115.288 37.791 115.016C38.063 114.744 38.199 114.405 38.199 114C38.199 113.595 38.063 113.256 37.791 112.984C37.519 112.712 37.183 112.576 36.783 112.576C36.3883 112.576 36.055 112.712 35.783 112.984C35.511 113.256 35.375 113.595 35.375 114C35.375 114.405 35.511 114.744 35.783 115.016C36.055 115.288 36.3883 115.424 36.783 115.424ZM42.4835 113.664V112H43.1795V116H42.4835V114.328H40.4115V116H39.7155V112H40.4115V113.664H42.4835ZM43.7909 112H47.2149V112.672H45.8549V116H45.1589V112.672H43.7909V112ZM51.5086 114.32H48.1566C48.226 114.672 48.3886 114.949 48.6446 115.152C48.9006 115.349 49.2206 115.448 49.6046 115.448C50.1326 115.448 50.5166 115.253 50.7566 114.864L51.3486 115.2C50.954 115.803 50.3673 116.104 49.5886 116.104C48.9593 116.104 48.442 115.907 48.0366 115.512C47.642 115.107 47.4446 114.603 47.4446 114C47.4446 113.392 47.6393 112.891 48.0286 112.496C48.418 112.096 48.922 111.896 49.5406 111.896C50.1273 111.896 50.6046 112.104 50.9726 112.52C51.346 112.925 51.5326 113.421 51.5326 114.008C51.5326 114.109 51.5246 114.213 51.5086 114.32ZM49.5406 112.552C49.1726 112.552 48.8633 112.656 48.6126 112.864C48.3673 113.072 48.2153 113.355 48.1566 113.712H50.8286C50.77 113.344 50.6233 113.059 50.3886 112.856C50.154 112.653 49.8713 112.552 49.5406 112.552ZM55.1007 113.664V112H55.7967V116H55.1007V114.328H53.0287V116H52.3327V112H53.0287V113.664H55.1007ZM56.4081 112H59.8321V112.672H58.4721V116H57.7761V112.672H56.4081V112Z" fill="white"/>
<path d="M32.12 144.12L34.672 147H33.76L31.344 144.312V147H30.6V141.4H31.344V143.928L33.68 141.4H34.592L32.12 144.12ZM37.4704 142.896C38.0304 142.896 38.5077 143.101 38.9024 143.512C39.297 143.923 39.4944 144.419 39.4944 145C39.4944 145.587 39.297 146.085 38.9024 146.496C38.513 146.901 38.0357 147.104 37.4704 147.104C36.809 147.104 36.305 146.84 35.9584 146.312V148.6H35.2624V143H35.9584V143.688C36.305 143.16 36.809 142.896 37.4704 142.896ZM37.3824 146.432C37.7824 146.432 38.1184 146.296 38.3904 146.024C38.6624 145.741 38.7984 145.4 38.7984 145C38.7984 144.595 38.6624 144.256 38.3904 143.984C38.1184 143.707 37.7824 143.568 37.3824 143.568C36.977 143.568 36.6384 143.707 36.3664 143.984C36.0944 144.256 35.9584 144.595 35.9584 145C35.9584 145.4 36.0944 145.741 36.3664 146.024C36.6384 146.296 36.977 146.432 37.3824 146.432ZM44.1649 145.32H40.8129C40.8822 145.672 41.0449 145.949 41.3009 146.152C41.5569 146.349 41.8769 146.448 42.2609 146.448C42.7889 146.448 43.1729 146.253 43.4129 145.864L44.0049 146.2C43.6102 146.803 43.0235 147.104 42.2449 147.104C41.6155 147.104 41.0982 146.907 40.6929 146.512C40.2982 146.107 40.1009 145.603 40.1009 145C40.1009 144.392 40.2955 143.891 40.6849 143.496C41.0742 143.096 41.5782 142.896 42.1969 142.896C42.7835 142.896 43.2609 143.104 43.6289 143.52C44.0022 143.925 44.1889 144.421 44.1889 145.008C44.1889 145.109 44.1809 145.213 44.1649 145.32ZM42.1969 143.552C41.8289 143.552 41.5195 143.656 41.2689 143.864C41.0235 144.072 40.8715 144.355 40.8129 144.712H43.4849C43.4262 144.344 43.2795 144.059 43.0449 143.856C42.8102 143.653 42.5275 143.552 42.1969 143.552ZM48.2931 143.688V143H48.9891V147H48.2931V146.312C47.9518 146.84 47.4478 147.104 46.7811 147.104C46.2158 147.104 45.7385 146.901 45.3491 146.496C44.9545 146.085 44.7571 145.587 44.7571 145C44.7571 144.419 44.9545 143.923 45.3491 143.512C45.7438 143.101 46.2211 142.896 46.7811 142.896C47.4478 142.896 47.9518 143.16 48.2931 143.688ZM46.8691 146.432C47.2745 146.432 47.6131 146.296 47.8851 146.024C48.1571 145.741 48.2931 145.4 48.2931 145C48.2931 144.595 48.1571 144.256 47.8851 143.984C47.6131 143.707 47.2745 143.568 46.8691 143.568C46.4691 143.568 46.1331 143.707 45.8611 143.984C45.5891 144.256 45.4531 144.595 45.4531 145C45.4531 145.4 45.5891 145.741 45.8611 146.024C46.1331 146.296 46.4691 146.432 46.8691 146.432ZM49.5956 143H53.0196V143.672H51.6596V147H50.9636V143.672H49.5956V143ZM54.3176 145.808L56.5336 143H57.0936V147H56.4056V144.192L54.1896 147H53.6296V143H54.3176V145.808ZM60.817 144.944C61.2277 145.115 61.433 145.424 61.433 145.872C61.433 146.213 61.321 146.488 61.097 146.696C60.873 146.899 60.5583 147 60.153 147H58.153V143H59.993C60.3877 143 60.6943 143.099 60.913 143.296C61.137 143.493 61.249 143.757 61.249 144.088C61.249 144.472 61.105 144.757 60.817 144.944ZM59.961 143.624H58.833V144.672H59.961C60.3663 144.672 60.569 144.493 60.569 144.136C60.569 143.795 60.3663 143.624 59.961 143.624ZM58.833 146.368H60.113C60.3157 146.368 60.4703 146.32 60.577 146.224C60.689 146.128 60.745 145.992 60.745 145.816C60.745 145.651 60.689 145.523 60.577 145.432C60.4703 145.336 60.3157 145.288 60.113 145.288H58.833V146.368ZM64.9523 144.664V143H65.6483V147H64.9523V145.328H62.8803V147H62.1842V143H62.8803V144.664H64.9523ZM70.0837 146.496C69.6784 146.901 69.1797 147.104 68.5877 147.104C67.9957 147.104 67.497 146.901 67.0917 146.496C66.6864 146.091 66.4837 145.592 66.4837 145C66.4837 144.408 66.6864 143.909 67.0917 143.504C67.497 143.099 67.9957 142.896 68.5877 142.896C69.1797 142.896 69.6784 143.099 70.0837 143.504C70.4944 143.915 70.6997 144.413 70.6997 145C70.6997 145.587 70.4944 146.085 70.0837 146.496ZM68.5877 146.424C68.9877 146.424 69.3237 146.288 69.5957 146.016C69.8677 145.744 70.0037 145.405 70.0037 145C70.0037 144.595 69.8677 144.256 69.5957 143.984C69.3237 143.712 68.9877 143.576 68.5877 143.576C68.193 143.576 67.8597 143.712 67.5877 143.984C67.3157 144.256 67.1797 144.595 67.1797 145C67.1797 145.405 67.3157 145.744 67.5877 146.016C67.8597 146.288 68.193 146.424 68.5877 146.424ZM73.4002 147.104C72.7975 147.104 72.2962 146.904 71.8962 146.504C71.4962 146.099 71.2962 145.597 71.2962 145C71.2962 144.403 71.4962 143.904 71.8962 143.504C72.2962 143.099 72.7975 142.896 73.4002 142.896C73.7949 142.896 74.1495 142.992 74.4642 143.184C74.7789 143.371 75.0135 143.624 75.1682 143.944L74.5842 144.28C74.4829 144.067 74.3255 143.896 74.1122 143.768C73.9042 143.64 73.6669 143.576 73.4002 143.576C73.0002 143.576 72.6642 143.712 72.3922 143.984C72.1255 144.261 71.9922 144.6 71.9922 145C71.9922 145.395 72.1255 145.731 72.3922 146.008C72.6642 146.28 73.0002 146.416 73.4002 146.416C73.6669 146.416 73.9069 146.355 74.1202 146.232C74.3335 146.104 74.4962 145.933 74.6082 145.72L75.2002 146.064C75.0242 146.384 74.7762 146.637 74.4562 146.824C74.1362 147.011 73.7842 147.104 73.4002 147.104ZM75.3769 143H78.8009V143.672H77.4409V147H76.7449V143.672H75.3769V143ZM80.1068 144.44H81.0988C81.4988 144.44 81.8295 144.56 82.0908 144.8C82.3575 145.035 82.4908 145.341 82.4908 145.72C82.4908 146.099 82.3575 146.408 82.0908 146.648C81.8241 146.883 81.4935 147 81.0988 147H79.4108V143H80.1068V144.44ZM80.1068 146.352H81.0988C81.3015 146.352 81.4695 146.293 81.6028 146.176C81.7361 146.059 81.8028 145.907 81.8028 145.72C81.8028 145.533 81.7335 145.381 81.5948 145.264C81.4615 145.141 81.2961 145.08 81.0988 145.08H80.1068V146.352Z" fill="white"/>
<path d="M33.8 178.096C34.0613 178.224 34.2667 178.403 34.416 178.632C34.5653 178.861 34.64 179.123 34.64 179.416C34.64 179.864 34.4827 180.24 34.168 180.544C33.8533 180.848 33.4693 181 33.016 181H30.6V175.4H32.84C33.2827 175.4 33.6533 175.547 33.952 175.84C34.256 176.133 34.408 176.496 34.408 176.928C34.408 177.429 34.2053 177.819 33.8 178.096ZM32.84 176.096H31.344V177.808H32.84C33.0747 177.808 33.272 177.725 33.432 177.56C33.592 177.395 33.672 177.192 33.672 176.952C33.672 176.717 33.5893 176.517 33.424 176.352C33.264 176.181 33.0693 176.096 32.84 176.096ZM31.344 180.304H33.016C33.2667 180.304 33.4773 180.216 33.648 180.04C33.8187 179.864 33.904 179.648 33.904 179.392C33.904 179.141 33.816 178.928 33.64 178.752C33.4747 178.576 33.2667 178.488 33.016 178.488H31.344V180.304ZM38.7853 177.688V177H39.4813V181H38.7853V180.312C38.444 180.84 37.94 181.104 37.2733 181.104C36.708 181.104 36.2306 180.901 35.8413 180.496C35.4466 180.085 35.2493 179.587 35.2493 179C35.2493 178.419 35.4466 177.923 35.8413 177.512C36.236 177.101 36.7133 176.896 37.2733 176.896C37.94 176.896 38.444 177.16 38.7853 177.688ZM37.3613 180.432C37.7666 180.432 38.1053 180.296 38.3773 180.024C38.6493 179.741 38.7853 179.4 38.7853 179C38.7853 178.595 38.6493 178.256 38.3773 177.984C38.1053 177.707 37.7666 177.568 37.3613 177.568C36.9613 177.568 36.6253 177.707 36.3533 177.984C36.0813 178.256 35.9453 178.595 35.9453 179C35.9453 179.4 36.0813 179.741 36.3533 180.024C36.6253 180.296 36.9613 180.432 37.3613 180.432ZM42.7438 176.896C43.3038 176.896 43.7811 177.101 44.1758 177.512C44.5705 177.923 44.7678 178.419 44.7678 179C44.7678 179.587 44.5705 180.085 44.1758 180.496C43.7865 180.901 43.3091 181.104 42.7438 181.104C42.0825 181.104 41.5785 180.84 41.2318 180.312V182.6H40.5358V177H41.2318V177.688C41.5785 177.16 42.0825 176.896 42.7438 176.896ZM42.6558 180.432C43.0558 180.432 43.3918 180.296 43.6638 180.024C43.9358 179.741 44.0718 179.4 44.0718 179C44.0718 178.595 43.9358 178.256 43.6638 177.984C43.3918 177.707 43.0558 177.568 42.6558 177.568C42.2505 177.568 41.9118 177.707 41.6398 177.984C41.3678 178.256 41.2318 178.595 41.2318 179C41.2318 179.4 41.3678 179.741 41.6398 180.024C41.9118 180.296 42.2505 180.432 42.6558 180.432ZM46.2863 179.808L48.5023 177H49.0623V181H48.3743V178.192L46.1583 181H45.5983V177H46.2863V179.808ZM53.4338 177.688V177H54.1298V181H53.4338V180.312C53.0924 180.84 52.5884 181.104 51.9218 181.104C51.3564 181.104 50.8791 180.901 50.4898 180.496C50.0951 180.085 49.8978 179.587 49.8978 179C49.8978 178.419 50.0951 177.923 50.4898 177.512C50.8844 177.101 51.3618 176.896 51.9218 176.896C52.5884 176.896 53.0924 177.16 53.4338 177.688ZM52.0098 180.432C52.4151 180.432 52.7538 180.296 53.0258 180.024C53.2978 179.741 53.4338 179.4 53.4338 179C53.4338 178.595 53.2978 178.256 53.0258 177.984C52.7538 177.707 52.4151 177.568 52.0098 177.568C51.6098 177.568 51.2738 177.707 51.0018 177.984C50.7298 178.256 50.5938 178.595 50.5938 179C50.5938 179.4 50.7298 179.741 51.0018 180.024C51.2738 180.296 51.6098 180.432 52.0098 180.432ZM58.5443 177V180.336H59.2003V182.072H58.5123V181H55.1842V177H55.8803V180.336H57.8483V177H58.5443ZM60.6301 179.808L62.8461 177H63.4061V181H62.7181V178.192L60.5021 181H59.9421V177H60.6301V179.808ZM65.1535 179.808L67.3695 177H67.9295V181H67.2415V178.192L65.0255 181H64.4655V177H65.1535V179.808Z" fill="white"/>
<rect x="30.5" y="48.5" width="139" height="17" rx="8.5" fill="#101010" stroke="url(#paint0_linear_3001_27)"/>
<rect x="30.5" y="86.5" width="139" height="17" rx="8.5" fill="#101010" stroke="url(#paint1_linear_3001_27)"/>
<rect x="30.5" y="121.5" width="139" height="17" rx="8.5" fill="#101010" stroke="url(#paint2_linear_3001_27)"/>
<rect x="30.5" y="152.5" width="139" height="17" rx="8.5" fill="#101010" stroke="url(#paint3_linear_3001_27)"/>
<rect x="30.5" y="186.5" width="139" height="17" rx="8.5" fill="#101010" stroke="url(#paint4_linear_3001_27)"/>
<rect x="0.5" y="0.5" width="198" height="216" rx="14.5" stroke="url(#paint5_linear_3001_27)"/>
<defs>
<linearGradient id="paint0_linear_3001_27" x1="2.80174" y1="23.9499" x2="119.382" y2="77.2416" gradientUnits="userSpaceOnUse">
<stop stop-color="#4F9279"/>
<stop offset="0.904546" stop-color="#182C24"/>
</linearGradient>
<linearGradient id="paint1_linear_3001_27" x1="2.80174" y1="61.9499" x2="119.382" y2="115.242" gradientUnits="userSpaceOnUse">
<stop stop-color="#4F9279"/>
<stop offset="0.904546" stop-color="#182C24"/>
</linearGradient>
<linearGradient id="paint2_linear_3001_27" x1="2.80174" y1="96.9499" x2="119.382" y2="150.242" gradientUnits="userSpaceOnUse">
<stop stop-color="#4F9279"/>
<stop offset="0.904546" stop-color="#182C24"/>
</linearGradient>
<linearGradient id="paint3_linear_3001_27" x1="2.80174" y1="127.95" x2="119.382" y2="181.242" gradientUnits="userSpaceOnUse">
<stop stop-color="#4F9279"/>
<stop offset="0.904546" stop-color="#182C24"/>
</linearGradient>
<linearGradient id="paint4_linear_3001_27" x1="2.80174" y1="161.95" x2="119.382" y2="215.242" gradientUnits="userSpaceOnUse">
<stop stop-color="#4F9279"/>
<stop offset="0.904546" stop-color="#182C24"/>
</linearGradient>
<linearGradient id="paint5_linear_3001_27" x1="99.5" y1="1.51642e-05" x2="265.775" y2="74.9857" gradientUnits="userSpaceOnUse">
<stop stop-color="#767676"/>
<stop offset="1" stop-color="#4B4B4B"/>
</linearGradient>
</defs>
</svg>
