<svg width="30" height="30" viewBox="0 0 30 30" fill="none" xmlns="http://www.w3.org/2000/svg">
<path d="M28.0198 12.2786C28.361 11.2689 28.4792 10.1974 28.367 9.1376C28.2545 8.07782 27.9137 7.05495 27.3685 6.13938C26.555 4.74648 25.321 3.64737 23.8437 3.00012C22.3584 2.34775 20.706 2.17763 19.119 2.5137C18.4005 1.71542 17.5204 1.07919 16.5371 0.647285C15.551 0.213953 14.4847 -0.00655673 13.4076 0.00014845C11.7878 -0.00436082 10.2074 0.500093 8.88975 1.44228C7.58065 2.37748 6.60378 3.7057 6.10103 5.23403C5.04577 5.44688 4.04755 5.88065 3.17193 6.50688C2.30033 7.12953 1.57195 7.93138 1.03565 8.85863C0.220574 10.2416 -0.127834 11.8501 0.0419523 13.4464C0.211739 15.0427 0.890705 16.542 1.97844 17.7225C1.63747 18.7319 1.51904 19.8032 1.6313 20.8628C1.74355 21.9223 2.08383 22.945 2.62875 23.8606C3.4421 25.2535 4.67615 26.3528 6.1535 27C7.63875 27.6523 9.29117 27.8225 10.8782 27.4862C11.5963 28.2845 12.4761 28.9208 13.4591 29.3528C14.4447 29.7855 15.5118 30.0063 16.5906 29.9998C18.2115 30.0055 19.7931 29.5012 21.1117 28.5588C22.4224 27.6227 23.4002 26.293 23.9026 24.7628C24.9578 24.5504 25.956 24.1169 26.8318 23.491C27.703 22.868 28.431 22.0657 28.967 21.1382C29.7807 19.7552 30.1283 18.147 29.9578 16.5513C29.787 14.9557 29.1077 13.4572 28.0198 12.2775V12.2786ZM16.6528 28.0392C15.14 28.0392 13.969 27.5805 12.9459 26.7375C12.992 26.7127 13.0734 26.6687 13.1259 26.6367L19.179 23.1867C19.3297 23.1019 19.4552 22.9784 19.5425 22.8291C19.6299 22.6799 19.676 22.51 19.6761 22.3371V13.9157L22.2356 15.3729C22.2488 15.3797 22.2601 15.3896 22.2687 15.4017C22.2773 15.4138 22.2828 15.4278 22.2849 15.4425V22.4153C22.2849 25.578 19.6161 28.0392 16.6528 28.0392ZM4.35257 22.8792C3.68535 21.7443 3.44415 20.4088 3.67225 19.1121C3.71725 19.1389 3.79545 19.1871 3.85225 19.2192L9.9054 22.6692C10.0565 22.7565 10.228 22.8024 10.4025 22.8024C10.577 22.8024 10.7485 22.7565 10.8996 22.6692L18.2898 18.4585V21.3728C18.2907 21.3877 18.2878 21.4025 18.2815 21.416C18.2751 21.4295 18.2654 21.4412 18.2534 21.4499L12.1349 24.9374C10.8225 25.682 9.27063 25.8827 7.81198 25.4967C6.35827 25.115 5.11545 24.1742 4.35257 22.8792ZM2.75732 9.84005C3.42677 8.69645 4.47622 7.824 5.72283 7.37472V14.4804C5.72115 14.6537 5.7665 14.8242 5.85405 14.9739C5.94158 15.1235 6.06803 15.2465 6.21992 15.33L13.609 19.5407L11.0507 20.9978C11.0381 21.006 11.0238 21.0111 11.0089 21.0126C10.9939 21.0141 10.9789 21.0119 10.9649 21.0064L4.84325 17.5168C4.19858 17.1503 3.6325 16.6603 3.1775 16.0747C2.7225 15.4891 2.38748 14.8195 2.19164 14.1043C1.998 13.3916 1.94819 12.6475 2.04513 11.9154C2.14206 11.1833 2.38487 10.4778 2.75732 9.84005ZM23.7805 14.6679L16.3903 10.4572L18.9487 9.00005C18.9612 8.99185 18.9756 8.98678 18.9905 8.98528C19.0054 8.9838 19.0205 8.98592 19.0344 8.9915L25.155 12.4789C26.0893 13.0109 26.8525 13.798 27.3555 14.7482C27.8555 15.6939 28.0723 16.7638 27.9795 17.8295C27.8867 18.8953 27.4885 19.9116 26.8328 20.7567C26.173 21.6087 25.2852 22.2558 24.2722 22.6231V15.5164C24.2741 15.3439 24.2295 15.174 24.1429 15.0246C24.0564 14.8753 23.9312 14.752 23.7805 14.6679ZM26.327 10.8826C26.2675 10.8464 26.2075 10.8111 26.147 10.7765L20.094 7.3265C19.9428 7.23945 19.7713 7.19362 19.5968 7.19362C19.4224 7.19362 19.2509 7.23945 19.0998 7.3265L11.7095 11.5372V8.62078C11.7087 8.6059 11.7116 8.59103 11.7179 8.57755C11.7243 8.56407 11.7339 8.55242 11.746 8.54365L17.8655 5.06045C18.8048 4.52642 19.8754 4.26745 20.9549 4.3131C22.0344 4.35877 23.0793 4.70722 23.9701 5.31868C24.8551 5.92613 25.5483 6.7736 25.9683 7.7615C26.386 8.7472 26.5103 9.82935 26.327 10.8826ZM10.3189 16.0811L7.7584 14.624C7.745 14.6174 7.73348 14.6076 7.72485 14.5954C7.71625 14.5833 7.71082 14.5691 7.70913 14.5543V7.58042C7.71018 6.51222 8.0198 5.46653 8.60048 4.56547C9.18458 3.66178 10.0135 2.94275 10.9907 2.49227C11.972 2.03979 13.0607 1.87219 14.1327 2.00858C15.2046 2.14498 16.2167 2.57987 17.0535 3.2637C16.9928 3.29573 16.9328 3.32895 16.8735 3.36333L10.8203 6.8133C10.6696 6.8982 10.544 7.02157 10.4565 7.17083C10.369 7.3201 10.3226 7.4899 10.3222 7.66292L10.3189 16.0811ZM11.7085 13.124L14.9997 11.25L18.2909 13.125V16.875L14.9997 18.7489L11.7085 16.8739V13.124Z" fill="white"/>
</svg>
